<svg width="1412" height="545" viewBox="0 0 1412 545" fill="none" xmlns="http://www.w3.org/2000/svg">
<path d="M156.219 22.9131L163.397 32.5275L170.576 22.9131C173.69 18.7426 177.205 16.663 180.108 16.1175C182.704 15.6299 185.726 16.1644 189.002 19.2437C192.323 22.3643 193.191 25.5465 192.719 29.309C192.176 33.6286 189.759 38.9669 185.494 44.9932C182.045 49.8669 176.561 55.4363 171.101 60.1976C168.109 62.8069 165.442 64.8984 163.397 66.3815C161.353 64.8984 158.685 62.8069 155.693 60.1976C150.234 55.4363 144.75 49.8669 141.301 44.9932C137.036 38.9669 134.619 33.6286 134.076 29.309C133.604 25.5465 134.472 22.3643 137.792 19.2437C141.069 16.1644 144.091 15.6299 146.686 16.1175C149.59 16.663 153.105 18.7426 156.219 22.9131Z" fill="#B60808" stroke="#B60808" stroke-width="17.918"/>
<g filter="url(#filter0_d_11_970)">
<rect y="33.1264" width="52.7485" height="44.2967" rx="8.43976" fill="#B60808"/>
<path d="M43.9571 37.3771V24.6672C43.9571 14.8829 36.0254 6.95111 26.2411 6.95111V6.95111C16.4568 6.95111 8.52502 14.8828 8.52502 24.6671V37.3771" stroke="#B60808" stroke-width="8.43976"/>
<ellipse cx="26.3743" cy="53.0375" rx="7.9922" ry="6.71162" fill="white"/>
<path d="M26.3743 56.1697V65.3422" stroke="white" stroke-width="8.43976" stroke-linecap="round"/>
</g>
<path d="M276.509 38.9946V10.1956C281.786 10.4682 286.137 10.3141 290.329 9.5426C294.894 8.70233 299.152 7.15169 304.125 4.77744C308.999 7.02314 313.179 8.57716 317.708 9.45219C321.899 10.2617 326.29 10.4713 331.701 10.1964V39.0105C331.547 45.0304 330.98 49.1316 329.972 52.1923C328.989 55.1744 327.562 57.2452 325.506 59.1653C323.361 61.1682 320.558 62.9915 316.69 65.4897L316.622 65.5336C313.165 67.7664 309 70.456 304.078 74.1367C299.373 70.7525 295.343 68.3113 291.968 66.2669L291.938 66.2482C288.144 63.95 285.363 62.2537 283.196 60.2908C279.193 56.6642 277.002 51.8747 276.509 38.9946Z" fill="#B60808" stroke="#B60808" stroke-width="5.01748"/>
<path d="M436.507 76.9999C458.665 76.9999 466.329 61.273 467.019 20.3396C451.716 17.434 447.042 21.066 436.507 26.5141C428.89 14.0278 421.992 13.793 406.311 9.80659V23.6084C409.757 63.0592 414.349 76.9999 436.507 76.9999Z" fill="#B60808"/>
<path d="M436.51 0C450.279 9.86165 454.128 16.7648 455.382 31.0542H417.637C417.637 31.0542 419.976 19.3863 422.545 14.8915C425.451 9.80657 429.811 5.38491 436.51 0Z" fill="#B60808"/>
<path d="M467.019 20.845C450.859 18.1301 439.427 23.5239 431.517 31.6996M417.095 70.7899C413.843 78.0097 414.99 48.7822 431.517 31.6996M406 10.1699C426.291 13.2733 431.557 18.1562 431.517 31.6996" stroke="white" stroke-width="2.17924"/>
<circle cx="557.633" cy="64.177" r="8.11667" transform="rotate(27.1071 557.633 64.177)" fill="white" stroke="#B60808" stroke-width="5.41111"/>
<circle cx="572.324" cy="71.6971" r="8.11667" transform="rotate(27.1071 572.324 71.6971)" fill="white" stroke="#B60808" stroke-width="5.41111"/>
<circle cx="559.862" cy="77.9319" r="5.81694" transform="rotate(27.1071 559.862 77.9319)" fill="white" stroke="#B60808" stroke-width="5.41111"/>
<path d="M599.038 10.6022C600.06 8.60703 599.27 6.16172 597.275 5.14044C595.28 4.11915 592.834 4.90863 591.813 6.90379L599.038 10.6022ZM571.793 63.8271L599.038 10.6022L591.813 6.90379L564.568 60.1287L571.793 63.8271Z" fill="#B60808"/>
<rect x="594.563" y="10.4388" width="6.76389" height="16.2333" transform="rotate(27.1071 594.563 10.4388)" fill="#B60808"/>
<path d="M603.657 21.173C604.987 21.8538 606.618 21.3275 607.299 19.9974C607.979 18.6673 607.453 17.0371 606.123 16.3562L603.657 21.173ZM593.301 15.8719L603.657 21.173L606.123 16.3562L595.767 11.0552L593.301 15.8719Z" fill="#B60808"/>
<path d="M597.209 24.863C598.539 25.5438 600.17 25.0175 600.85 23.6874C601.531 22.3573 601.005 20.7271 599.675 20.0462L597.209 24.863ZM586.853 19.5619L597.209 24.863L599.675 20.0462L589.319 14.7452L586.853 19.5619Z" fill="#B60808"/>
<path d="M596.178 31.6292C597.508 32.3101 599.138 31.7837 599.819 30.4536C600.5 29.1235 599.973 27.4933 598.643 26.8125L596.178 31.6292ZM585.822 26.3282L596.178 31.6292L598.643 26.8125L588.287 21.5114L585.822 26.3282Z" fill="#B60808"/>
<path d="M156.219 170.913L163.397 180.528L170.576 170.913C173.69 166.743 177.205 164.663 180.108 164.118C182.704 163.63 185.726 164.164 189.002 167.244C192.323 170.364 193.191 173.547 192.719 177.309C192.176 181.629 189.759 186.967 185.494 192.993C182.045 197.867 176.561 203.436 171.101 208.198C168.109 210.807 165.442 212.898 163.397 214.381C161.353 212.898 158.685 210.807 155.693 208.198C150.234 203.436 144.75 197.867 141.301 192.993C137.036 186.967 134.619 181.629 134.076 177.309C133.604 173.547 134.472 170.364 137.792 167.244C141.069 164.164 144.091 163.63 146.686 164.118C149.59 164.663 153.105 166.743 156.219 170.913Z" fill="#B60808" stroke="#B60808" stroke-width="17.918"/>
<g filter="url(#filter1_d_11_970)">
<rect y="181.126" width="52.7485" height="44.2967" rx="8.43976" fill="#B60808"/>
<path d="M43.9571 185.377V172.667C43.9571 162.883 36.0254 154.951 26.2411 154.951V154.951C16.4568 154.951 8.52502 162.883 8.52502 172.667V185.377" stroke="#B60808" stroke-width="8.43976"/>
<ellipse cx="26.3743" cy="201.038" rx="7.9922" ry="6.71162" fill="white"/>
<path d="M26.3743 204.17V213.342" stroke="white" stroke-width="8.43976" stroke-linecap="round"/>
</g>
<path d="M276.509 186.995V158.196C281.786 158.468 286.137 158.314 290.329 157.543C294.894 156.702 299.152 155.152 304.125 152.777C308.999 155.023 313.179 156.577 317.708 157.452C321.899 158.262 326.29 158.471 331.701 158.196V187.011C331.547 193.03 330.98 197.132 329.972 200.192C328.989 203.174 327.562 205.245 325.506 207.165C323.361 209.168 320.558 210.991 316.69 213.49L316.622 213.534C313.165 215.766 309 218.456 304.078 222.137C299.373 218.753 295.343 216.311 291.968 214.267L291.938 214.248C288.144 211.95 285.363 210.254 283.196 208.291C279.193 204.664 277.002 199.875 276.509 186.995Z" fill="#B60808" stroke="#B60808" stroke-width="5.01748"/>
<path d="M436.507 225C458.665 225 466.329 209.273 467.019 168.34C451.716 165.434 447.042 169.066 436.507 174.514C428.89 162.028 421.992 161.793 406.311 157.807V171.608C409.757 211.059 414.349 225 436.507 225Z" fill="#B60808"/>
<path d="M436.51 148C450.279 157.862 454.128 164.765 455.382 179.054H417.637C417.637 179.054 419.976 167.386 422.545 162.892C425.451 157.807 429.811 153.385 436.51 148Z" fill="#B60808"/>
<path d="M467.019 168.845C450.859 166.13 439.427 171.524 431.517 179.7M417.095 218.79C413.843 226.01 414.99 196.782 431.517 179.7M406 158.17C426.291 161.273 431.557 166.156 431.517 179.7" stroke="white" stroke-width="2.17924"/>
<circle cx="557.633" cy="212.177" r="8.11667" transform="rotate(27.1071 557.633 212.177)" fill="white" stroke="#B60808" stroke-width="5.41111"/>
<circle cx="572.324" cy="219.697" r="8.11667" transform="rotate(27.1071 572.324 219.697)" fill="white" stroke="#B60808" stroke-width="5.41111"/>
<circle cx="559.862" cy="225.932" r="5.81694" transform="rotate(27.1071 559.862 225.932)" fill="white" stroke="#B60808" stroke-width="5.41111"/>
<path d="M599.038 158.602C600.06 156.607 599.27 154.162 597.275 153.14C595.28 152.119 592.834 152.909 591.813 154.904L599.038 158.602ZM571.793 211.827L599.038 158.602L591.813 154.904L564.568 208.129L571.793 211.827Z" fill="#B60808"/>
<rect x="594.563" y="158.439" width="6.76389" height="16.2333" transform="rotate(27.1071 594.563 158.439)" fill="#B60808"/>
<path d="M603.657 169.173C604.987 169.854 606.618 169.328 607.299 167.997C607.979 166.667 607.453 165.037 606.123 164.356L603.657 169.173ZM593.301 163.872L603.657 169.173L606.123 164.356L595.767 159.055L593.301 163.872Z" fill="#B60808"/>
<path d="M597.209 172.863C598.539 173.544 600.17 173.018 600.85 171.687C601.531 170.357 601.005 168.727 599.675 168.046L597.209 172.863ZM586.853 167.562L597.209 172.863L599.675 168.046L589.319 162.745L586.853 167.562Z" fill="#B60808"/>
<path d="M596.178 179.629C597.508 180.31 599.138 179.784 599.819 178.454C600.5 177.124 599.973 175.493 598.643 174.812L596.178 179.629ZM585.822 174.328L596.178 179.629L598.643 174.812L588.287 169.511L585.822 174.328Z" fill="#B60808"/>
<path d="M156.219 318.913L163.397 328.528L170.576 318.913C173.69 314.743 177.205 312.663 180.108 312.118C182.704 311.63 185.726 312.164 189.002 315.244C192.323 318.364 193.191 321.547 192.719 325.309C192.176 329.629 189.759 334.967 185.494 340.993C182.045 345.867 176.561 351.436 171.101 356.198C168.109 358.807 165.442 360.898 163.397 362.381C161.353 360.898 158.685 358.807 155.693 356.198C150.234 351.436 144.75 345.867 141.301 340.993C137.036 334.967 134.619 329.629 134.076 325.309C133.604 321.547 134.472 318.364 137.792 315.244C141.069 312.164 144.091 311.63 146.686 312.118C149.59 312.663 153.105 314.743 156.219 318.913Z" fill="#B60808" stroke="#B60808" stroke-width="17.918"/>
<g filter="url(#filter2_d_11_970)">
<rect y="329.126" width="52.7485" height="44.2967" rx="8.43976" fill="#B60808"/>
<path d="M43.9571 333.377V320.667C43.9571 310.883 36.0254 302.951 26.2411 302.951V302.951C16.4568 302.951 8.52502 310.883 8.52502 320.667V333.377" stroke="#B60808" stroke-width="8.43976"/>
<ellipse cx="26.3743" cy="349.038" rx="7.9922" ry="6.71162" fill="white"/>
<path d="M26.3743 352.17V361.342" stroke="white" stroke-width="8.43976" stroke-linecap="round"/>
</g>
<path d="M276.509 334.995V306.196C281.786 306.468 286.137 306.314 290.329 305.543C294.894 304.702 299.152 303.152 304.125 300.777C308.999 303.023 313.179 304.577 317.708 305.452C321.899 306.262 326.29 306.471 331.701 306.196V335.011C331.547 341.03 330.98 345.132 329.972 348.192C328.989 351.174 327.562 353.245 325.506 355.165C323.361 357.168 320.558 358.991 316.69 361.49L316.622 361.534C313.165 363.766 309 366.456 304.078 370.137C299.373 366.753 295.343 364.311 291.968 362.267L291.938 362.248C288.144 359.95 285.363 358.254 283.196 356.291C279.193 352.664 277.002 347.875 276.509 334.995Z" fill="#B60808" stroke="#B60808" stroke-width="5.01748"/>
<path d="M436.507 373C458.665 373 466.329 357.273 467.019 316.34C451.716 313.434 447.042 317.066 436.507 322.514C428.89 310.028 421.992 309.793 406.311 305.807V319.608C409.757 359.059 414.349 373 436.507 373Z" fill="#B60808"/>
<path d="M436.51 296C450.279 305.862 454.128 312.765 455.382 327.054H417.637C417.637 327.054 419.976 315.386 422.545 310.892C425.451 305.807 429.811 301.385 436.51 296Z" fill="#B60808"/>
<path d="M467.019 316.845C450.859 314.13 439.427 319.524 431.517 327.7M417.095 366.79C413.843 374.01 414.99 344.782 431.517 327.7M406 306.17C426.291 309.273 431.557 314.156 431.517 327.7" stroke="white" stroke-width="2.17924"/>
<circle cx="557.633" cy="360.177" r="8.11667" transform="rotate(27.1071 557.633 360.177)" fill="white" stroke="#B60808" stroke-width="5.41111"/>
<circle cx="572.324" cy="367.697" r="8.11667" transform="rotate(27.1071 572.324 367.697)" fill="white" stroke="#B60808" stroke-width="5.41111"/>
<circle cx="559.862" cy="373.932" r="5.81694" transform="rotate(27.1071 559.862 373.932)" fill="white" stroke="#B60808" stroke-width="5.41111"/>
<path d="M599.038 306.602C600.06 304.607 599.27 302.162 597.275 301.14C595.28 300.119 592.834 300.909 591.813 302.904L599.038 306.602ZM571.793 359.827L599.038 306.602L591.813 302.904L564.568 356.129L571.793 359.827Z" fill="#B60808"/>
<rect x="594.563" y="306.439" width="6.76389" height="16.2333" transform="rotate(27.1071 594.563 306.439)" fill="#B60808"/>
<path d="M603.657 317.173C604.987 317.854 606.618 317.328 607.299 315.997C607.979 314.667 607.453 313.037 606.123 312.356L603.657 317.173ZM593.301 311.872L603.657 317.173L606.123 312.356L595.767 307.055L593.301 311.872Z" fill="#B60808"/>
<path d="M597.209 320.863C598.539 321.544 600.17 321.018 600.85 319.687C601.531 318.357 601.005 316.727 599.675 316.046L597.209 320.863ZM586.853 315.562L597.209 320.863L599.675 316.046L589.319 310.745L586.853 315.562Z" fill="#B60808"/>
<path d="M596.178 327.629C597.508 328.31 599.138 327.784 599.819 326.454C600.5 325.124 599.973 323.493 598.643 322.812L596.178 327.629ZM585.822 322.328L596.178 327.629L598.643 322.812L588.287 317.511L585.822 322.328Z" fill="#B60808"/>
<path d="M156.219 466.913L163.397 476.528L170.576 466.913C173.69 462.743 177.205 460.663 180.108 460.118C182.704 459.63 185.726 460.164 189.002 463.244C192.323 466.364 193.191 469.547 192.719 473.309C192.176 477.629 189.759 482.967 185.494 488.993C182.045 493.867 176.561 499.436 171.101 504.198C168.109 506.807 165.442 508.898 163.397 510.381C161.353 508.898 158.685 506.807 155.693 504.198C150.234 499.436 144.75 493.867 141.301 488.993C137.036 482.967 134.619 477.629 134.076 473.309C133.604 469.547 134.472 466.364 137.792 463.244C141.069 460.164 144.091 459.63 146.686 460.118C149.59 460.663 153.105 462.743 156.219 466.913Z" fill="#B60808" stroke="#B60808" stroke-width="17.918"/>
<g filter="url(#filter3_d_11_970)">
<rect y="477.126" width="52.7485" height="44.2967" rx="8.43976" fill="#B60808"/>
<path d="M43.9571 481.377V468.667C43.9571 458.883 36.0254 450.951 26.2411 450.951V450.951C16.4568 450.951 8.52502 458.883 8.52502 468.667V481.377" stroke="#B60808" stroke-width="8.43976"/>
<ellipse cx="26.3743" cy="497.038" rx="7.9922" ry="6.71162" fill="white"/>
<path d="M26.3743 500.17V509.342" stroke="white" stroke-width="8.43976" stroke-linecap="round"/>
</g>
<path d="M276.509 482.995V454.196C281.786 454.468 286.137 454.314 290.329 453.543C294.894 452.702 299.152 451.152 304.125 448.777C308.999 451.023 313.179 452.577 317.708 453.452C321.899 454.262 326.29 454.471 331.701 454.196V483.011C331.547 489.03 330.98 493.132 329.972 496.192C328.989 499.174 327.562 501.245 325.506 503.165C323.361 505.168 320.558 506.991 316.69 509.49L316.622 509.534C313.165 511.766 309 514.456 304.078 518.137C299.373 514.753 295.343 512.311 291.968 510.267L291.938 510.248C288.144 507.95 285.363 506.254 283.196 504.291C279.193 500.664 277.002 495.875 276.509 482.995Z" fill="#B60808" stroke="#B60808" stroke-width="5.01748"/>
<path d="M436.507 521C458.665 521 466.329 505.273 467.019 464.34C451.716 461.434 447.042 465.066 436.507 470.514C428.89 458.028 421.992 457.793 406.311 453.807V467.608C409.757 507.059 414.349 521 436.507 521Z" fill="#B60808"/>
<path d="M436.51 444C450.279 453.862 454.128 460.765 455.382 475.054H417.637C417.637 475.054 419.976 463.386 422.545 458.892C425.451 453.807 429.811 449.385 436.51 444Z" fill="#B60808"/>
<path d="M467.019 464.845C450.859 462.13 439.427 467.524 431.517 475.699M417.095 514.79C413.843 522.01 414.99 492.782 431.517 475.699M406 454.17C426.291 457.273 431.557 462.156 431.517 475.699" stroke="white" stroke-width="2.17924"/>
<circle cx="557.633" cy="508.177" r="8.11667" transform="rotate(27.1071 557.633 508.177)" fill="white" stroke="#B60808" stroke-width="5.41111"/>
<circle cx="572.324" cy="515.697" r="8.11667" transform="rotate(27.1071 572.324 515.697)" fill="white" stroke="#B60808" stroke-width="5.41111"/>
<circle cx="559.862" cy="521.932" r="5.81694" transform="rotate(27.1071 559.862 521.932)" fill="white" stroke="#B60808" stroke-width="5.41111"/>
<path d="M599.038 454.602C600.06 452.607 599.27 450.162 597.275 449.14C595.28 448.119 592.834 448.909 591.813 450.904L599.038 454.602ZM571.793 507.827L599.038 454.602L591.813 450.904L564.568 504.129L571.793 507.827Z" fill="#B60808"/>
<rect x="594.563" y="454.439" width="6.76389" height="16.2333" transform="rotate(27.1071 594.563 454.439)" fill="#B60808"/>
<path d="M603.657 465.173C604.987 465.854 606.618 465.328 607.299 463.997C607.979 462.667 607.453 461.037 606.123 460.356L603.657 465.173ZM593.301 459.872L603.657 465.173L606.123 460.356L595.767 455.055L593.301 459.872Z" fill="#B60808"/>
<path d="M597.209 468.863C598.539 469.544 600.17 469.018 600.85 467.687C601.531 466.357 601.005 464.727 599.675 464.046L597.209 468.863ZM586.853 463.562L597.209 468.863L599.675 464.046L589.319 458.745L586.853 463.562Z" fill="#B60808"/>
<path d="M596.178 475.629C597.508 476.31 599.138 475.784 599.819 474.454C600.5 473.124 599.973 471.493 598.643 470.812L596.178 475.629ZM585.822 470.328L596.178 475.629L598.643 470.812L588.287 465.511L585.822 470.328Z" fill="#B60808"/>
<path d="M849.219 22.9131L856.397 32.5275L863.576 22.9131C866.69 18.7426 870.205 16.663 873.108 16.1175C875.704 15.6299 878.726 16.1644 882.002 19.2437C885.323 22.3643 886.191 25.5465 885.719 29.309C885.176 33.6286 882.759 38.9669 878.494 44.9932C875.045 49.8669 869.561 55.4363 864.101 60.1976C861.109 62.8069 858.442 64.8984 856.397 66.3815C854.353 64.8984 851.685 62.8069 848.693 60.1976C843.234 55.4363 837.75 49.8669 834.301 44.9932C830.036 38.9669 827.619 33.6286 827.076 29.309C826.604 25.5465 827.472 22.3643 830.792 19.2437C834.069 16.1644 837.091 15.6299 839.686 16.1175C842.59 16.663 846.105 18.7426 849.219 22.9131Z" fill="#B60808" stroke="#B60808" stroke-width="17.918"/>
<g filter="url(#filter4_d_11_970)">
<rect x="693" y="33.1264" width="52.7485" height="44.2967" rx="8.43976" fill="#B60808"/>
<path d="M736.957 37.3771V24.6672C736.957 14.8829 729.025 6.95111 719.241 6.95111V6.95111C709.457 6.95111 701.525 14.8828 701.525 24.6671V37.3771" stroke="#B60808" stroke-width="8.43976"/>
<ellipse cx="719.374" cy="53.0375" rx="7.9922" ry="6.71162" fill="white"/>
<path d="M719.374 56.1697V65.3422" stroke="white" stroke-width="8.43976" stroke-linecap="round"/>
</g>
<path d="M969.509 38.9946V10.1956C974.786 10.4682 979.137 10.3141 983.329 9.5426C987.894 8.70233 992.152 7.15169 997.125 4.77744C1002 7.02314 1006.18 8.57716 1010.71 9.45219C1014.9 10.2617 1019.29 10.4713 1024.7 10.1964V39.0105C1024.55 45.0304 1023.98 49.1316 1022.97 52.1923C1021.99 55.1744 1020.56 57.2452 1018.51 59.1653C1016.36 61.1682 1013.56 62.9915 1009.69 65.4897L1009.62 65.5336C1006.16 67.7664 1002 70.456 997.078 74.1367C992.373 70.7525 988.343 68.3113 984.968 66.2669L984.938 66.2482C981.144 63.95 978.363 62.2537 976.196 60.2908C972.193 56.6642 970.002 51.8747 969.509 38.9946Z" fill="#B60808" stroke="#B60808" stroke-width="5.01748"/>
<path d="M1129.51 76.9999C1151.67 76.9999 1159.33 61.273 1160.02 20.3396C1144.72 17.434 1140.04 21.066 1129.51 26.5141C1121.89 14.0278 1114.99 13.793 1099.31 9.80659V23.6084C1102.76 63.0592 1107.35 76.9999 1129.51 76.9999Z" fill="#B60808"/>
<path d="M1129.51 0C1143.28 9.86165 1147.13 16.7648 1148.38 31.0542H1110.64C1110.64 31.0542 1112.98 19.3863 1115.54 14.8915C1118.45 9.80657 1122.81 5.38491 1129.51 0Z" fill="#B60808"/>
<path d="M1160.02 20.845C1143.86 18.1301 1132.43 23.5239 1124.52 31.6996M1110.09 70.7899C1106.84 78.0097 1107.99 48.7822 1124.52 31.6996M1099 10.1699C1119.29 13.2733 1124.56 18.1562 1124.52 31.6996" stroke="white" stroke-width="2.17924"/>
<circle cx="1250.63" cy="64.177" r="8.11667" transform="rotate(27.1071 1250.63 64.177)" fill="white" stroke="#B60808" stroke-width="5.41111"/>
<circle cx="1265.32" cy="71.6971" r="8.11667" transform="rotate(27.1071 1265.32 71.6971)" fill="white" stroke="#B60808" stroke-width="5.41111"/>
<circle cx="1252.86" cy="77.9319" r="5.81694" transform="rotate(27.1071 1252.86 77.9319)" fill="white" stroke="#B60808" stroke-width="5.41111"/>
<path d="M1292.04 10.6022C1293.06 8.60703 1292.27 6.16172 1290.27 5.14044C1288.28 4.11915 1285.83 4.90863 1284.81 6.90379L1292.04 10.6022ZM1264.79 63.8271L1292.04 10.6022L1284.81 6.90379L1257.57 60.1287L1264.79 63.8271Z" fill="#B60808"/>
<rect x="1287.56" y="10.4388" width="6.76389" height="16.2333" transform="rotate(27.1071 1287.56 10.4388)" fill="#B60808"/>
<path d="M1296.66 21.173C1297.99 21.8538 1299.62 21.3275 1300.3 19.9974C1300.98 18.6673 1300.45 17.0371 1299.12 16.3562L1296.66 21.173ZM1286.3 15.8719L1296.66 21.173L1299.12 16.3562L1288.77 11.0552L1286.3 15.8719Z" fill="#B60808"/>
<path d="M1290.21 24.863C1291.54 25.5438 1293.17 25.0175 1293.85 23.6874C1294.53 22.3573 1294.01 20.7271 1292.67 20.0462L1290.21 24.863ZM1279.85 19.5619L1290.21 24.863L1292.67 20.0462L1282.32 14.7452L1279.85 19.5619Z" fill="#B60808"/>
<path d="M1289.18 31.6292C1290.51 32.3101 1292.14 31.7837 1292.82 30.4536C1293.5 29.1235 1292.97 27.4933 1291.64 26.8125L1289.18 31.6292ZM1278.82 26.3282L1289.18 31.6292L1291.64 26.8125L1281.29 21.5114L1278.82 26.3282Z" fill="#B60808"/>
<path d="M849.219 172.913L856.397 182.528L863.576 172.913C866.69 168.743 870.205 166.663 873.108 166.118C875.704 165.63 878.726 166.164 882.002 169.244C885.323 172.364 886.191 175.547 885.719 179.309C885.176 183.629 882.759 188.967 878.494 194.993C875.045 199.867 869.561 205.436 864.101 210.198C861.109 212.807 858.442 214.898 856.397 216.381C854.353 214.898 851.685 212.807 848.693 210.198C843.234 205.436 837.75 199.867 834.301 194.993C830.036 188.967 827.619 183.629 827.076 179.309C826.604 175.547 827.472 172.364 830.792 169.244C834.069 166.164 837.091 165.63 839.686 166.118C842.59 166.663 846.105 168.743 849.219 172.913Z" fill="#B60808" stroke="#B60808" stroke-width="17.918"/>
<g filter="url(#filter5_d_11_970)">
<rect x="693" y="183.126" width="52.7485" height="44.2967" rx="8.43976" fill="#B60808"/>
<path d="M736.957 187.377V174.667C736.957 164.883 729.025 156.951 719.241 156.951V156.951C709.457 156.951 701.525 164.883 701.525 174.667V187.377" stroke="#B60808" stroke-width="8.43976"/>
<ellipse cx="719.374" cy="203.038" rx="7.9922" ry="6.71162" fill="white"/>
<path d="M719.374 206.17V215.342" stroke="white" stroke-width="8.43976" stroke-linecap="round"/>
</g>
<path d="M969.509 188.995V160.196C974.786 160.468 979.137 160.314 983.329 159.543C987.894 158.702 992.152 157.152 997.125 154.777C1002 157.023 1006.18 158.577 1010.71 159.452C1014.9 160.262 1019.29 160.471 1024.7 160.196V189.011C1024.55 195.03 1023.98 199.132 1022.97 202.192C1021.99 205.174 1020.56 207.245 1018.51 209.165C1016.36 211.168 1013.56 212.991 1009.69 215.49L1009.62 215.534C1006.16 217.766 1002 220.456 997.078 224.137C992.373 220.753 988.343 218.311 984.968 216.267L984.938 216.248C981.144 213.95 978.363 212.254 976.196 210.291C972.193 206.664 970.002 201.875 969.509 188.995Z" fill="#B60808" stroke="#B60808" stroke-width="5.01748"/>
<path d="M1129.51 227C1151.67 227 1159.33 211.273 1160.02 170.34C1144.72 167.434 1140.04 171.066 1129.51 176.514C1121.89 164.028 1114.99 163.793 1099.31 159.807V173.608C1102.76 213.059 1107.35 227 1129.51 227Z" fill="#B60808"/>
<path d="M1129.51 150C1143.28 159.862 1147.13 166.765 1148.38 181.054H1110.64C1110.64 181.054 1112.98 169.386 1115.54 164.892C1118.45 159.807 1122.81 155.385 1129.51 150Z" fill="#B60808"/>
<path d="M1160.02 170.845C1143.86 168.13 1132.43 173.524 1124.52 181.7M1110.09 220.79C1106.84 228.01 1107.99 198.782 1124.52 181.7M1099 160.17C1119.29 163.273 1124.56 168.156 1124.52 181.7" stroke="white" stroke-width="2.17924"/>
<circle cx="1250.63" cy="214.177" r="8.11667" transform="rotate(27.1071 1250.63 214.177)" fill="white" stroke="#B60808" stroke-width="5.41111"/>
<circle cx="1265.32" cy="221.697" r="8.11667" transform="rotate(27.1071 1265.32 221.697)" fill="white" stroke="#B60808" stroke-width="5.41111"/>
<circle cx="1252.86" cy="227.932" r="5.81694" transform="rotate(27.1071 1252.86 227.932)" fill="white" stroke="#B60808" stroke-width="5.41111"/>
<path d="M1292.04 160.602C1293.06 158.607 1292.27 156.162 1290.27 155.14C1288.28 154.119 1285.83 154.909 1284.81 156.904L1292.04 160.602ZM1264.79 213.827L1292.04 160.602L1284.81 156.904L1257.57 210.129L1264.79 213.827Z" fill="#B60808"/>
<rect x="1287.56" y="160.439" width="6.76389" height="16.2333" transform="rotate(27.1071 1287.56 160.439)" fill="#B60808"/>
<path d="M1296.66 171.173C1297.99 171.854 1299.62 171.328 1300.3 169.997C1300.98 168.667 1300.45 167.037 1299.12 166.356L1296.66 171.173ZM1286.3 165.872L1296.66 171.173L1299.12 166.356L1288.77 161.055L1286.3 165.872Z" fill="#B60808"/>
<path d="M1290.21 174.863C1291.54 175.544 1293.17 175.018 1293.85 173.687C1294.53 172.357 1294.01 170.727 1292.67 170.046L1290.21 174.863ZM1279.85 169.562L1290.21 174.863L1292.67 170.046L1282.32 164.745L1279.85 169.562Z" fill="#B60808"/>
<path d="M1289.18 181.629C1290.51 182.31 1292.14 181.784 1292.82 180.454C1293.5 179.124 1292.97 177.493 1291.64 176.812L1289.18 181.629ZM1278.82 176.328L1289.18 181.629L1291.64 176.812L1281.29 171.511L1278.82 176.328Z" fill="#B60808"/>
<path d="M849.219 322.913L856.397 332.528L863.576 322.913C866.69 318.743 870.205 316.663 873.108 316.118C875.704 315.63 878.726 316.164 882.002 319.244C885.323 322.364 886.191 325.547 885.719 329.309C885.176 333.629 882.759 338.967 878.494 344.993C875.045 349.867 869.561 355.436 864.101 360.198C861.109 362.807 858.442 364.898 856.397 366.381C854.353 364.898 851.685 362.807 848.693 360.198C843.234 355.436 837.75 349.867 834.301 344.993C830.036 338.967 827.619 333.629 827.076 329.309C826.604 325.547 827.472 322.364 830.792 319.244C834.069 316.164 837.091 315.63 839.686 316.118C842.59 316.663 846.105 318.743 849.219 322.913Z" fill="#B60808" stroke="#B60808" stroke-width="17.918"/>
<g filter="url(#filter6_d_11_970)">
<rect x="693" y="333.126" width="52.7485" height="44.2967" rx="8.43976" fill="#B60808"/>
<path d="M736.957 337.377V324.667C736.957 314.883 729.025 306.951 719.241 306.951V306.951C709.457 306.951 701.525 314.883 701.525 324.667V337.377" stroke="#B60808" stroke-width="8.43976"/>
<ellipse cx="719.374" cy="353.038" rx="7.9922" ry="6.71162" fill="white"/>
<path d="M719.374 356.17V365.342" stroke="white" stroke-width="8.43976" stroke-linecap="round"/>
</g>
<path d="M969.509 338.995V310.196C974.786 310.468 979.137 310.314 983.329 309.543C987.894 308.702 992.152 307.152 997.125 304.777C1002 307.023 1006.18 308.577 1010.71 309.452C1014.9 310.262 1019.29 310.471 1024.7 310.196V339.011C1024.55 345.03 1023.98 349.132 1022.97 352.192C1021.99 355.174 1020.56 357.245 1018.51 359.165C1016.36 361.168 1013.56 362.991 1009.69 365.49L1009.62 365.534C1006.16 367.766 1002 370.456 997.078 374.137C992.373 370.753 988.343 368.311 984.968 366.267L984.938 366.248C981.144 363.95 978.363 362.254 976.196 360.291C972.193 356.664 970.002 351.875 969.509 338.995Z" fill="#B60808" stroke="#B60808" stroke-width="5.01748"/>
<path d="M1129.51 377C1151.67 377 1159.33 361.273 1160.02 320.34C1144.72 317.434 1140.04 321.066 1129.51 326.514C1121.89 314.028 1114.99 313.793 1099.31 309.807V323.608C1102.76 363.059 1107.35 377 1129.51 377Z" fill="#B60808"/>
<path d="M1129.51 300C1143.28 309.862 1147.13 316.765 1148.38 331.054H1110.64C1110.64 331.054 1112.98 319.386 1115.54 314.892C1118.45 309.807 1122.81 305.385 1129.51 300Z" fill="#B60808"/>
<path d="M1160.02 320.845C1143.86 318.13 1132.43 323.524 1124.52 331.7M1110.09 370.79C1106.84 378.01 1107.99 348.782 1124.52 331.7M1099 310.17C1119.29 313.273 1124.56 318.156 1124.52 331.7" stroke="white" stroke-width="2.17924"/>
<circle cx="1250.63" cy="364.177" r="8.11667" transform="rotate(27.1071 1250.63 364.177)" fill="white" stroke="#B60808" stroke-width="5.41111"/>
<circle cx="1265.32" cy="371.697" r="8.11667" transform="rotate(27.1071 1265.32 371.697)" fill="white" stroke="#B60808" stroke-width="5.41111"/>
<circle cx="1252.86" cy="377.932" r="5.81694" transform="rotate(27.1071 1252.86 377.932)" fill="white" stroke="#B60808" stroke-width="5.41111"/>
<path d="M1292.04 310.602C1293.06 308.607 1292.27 306.162 1290.27 305.14C1288.28 304.119 1285.83 304.909 1284.81 306.904L1292.04 310.602ZM1264.79 363.827L1292.04 310.602L1284.81 306.904L1257.57 360.129L1264.79 363.827Z" fill="#B60808"/>
<rect x="1287.56" y="310.439" width="6.76389" height="16.2333" transform="rotate(27.1071 1287.56 310.439)" fill="#B60808"/>
<path d="M1296.66 321.173C1297.99 321.854 1299.62 321.328 1300.3 319.997C1300.98 318.667 1300.45 317.037 1299.12 316.356L1296.66 321.173ZM1286.3 315.872L1296.66 321.173L1299.12 316.356L1288.77 311.055L1286.3 315.872Z" fill="#B60808"/>
<path d="M1290.21 324.863C1291.54 325.544 1293.17 325.018 1293.85 323.687C1294.53 322.357 1294.01 320.727 1292.67 320.046L1290.21 324.863ZM1279.85 319.562L1290.21 324.863L1292.67 320.046L1282.32 314.745L1279.85 319.562Z" fill="#B60808"/>
<path d="M1289.18 331.629C1290.51 332.31 1292.14 331.784 1292.82 330.454C1293.5 329.124 1292.97 327.493 1291.64 326.812L1289.18 331.629ZM1278.82 326.328L1289.18 331.629L1291.64 326.812L1281.29 321.511L1278.82 326.328Z" fill="#B60808"/>
<path d="M849.219 472.913L856.397 482.528L863.576 472.913C866.69 468.743 870.205 466.663 873.108 466.118C875.704 465.63 878.726 466.164 882.002 469.244C885.323 472.364 886.191 475.547 885.719 479.309C885.176 483.629 882.759 488.967 878.494 494.993C875.045 499.867 869.561 505.436 864.101 510.198C861.109 512.807 858.442 514.898 856.397 516.381C854.353 514.898 851.685 512.807 848.693 510.198C843.234 505.436 837.75 499.867 834.301 494.993C830.036 488.967 827.619 483.629 827.076 479.309C826.604 475.547 827.472 472.364 830.792 469.244C834.069 466.164 837.091 465.63 839.686 466.118C842.59 466.663 846.105 468.743 849.219 472.913Z" fill="#B60808" stroke="#B60808" stroke-width="17.918"/>
<g filter="url(#filter7_d_11_970)">
<rect x="693" y="483.126" width="52.7485" height="44.2967" rx="8.43976" fill="#B60808"/>
<path d="M736.957 487.377V474.667C736.957 464.883 729.025 456.951 719.241 456.951V456.951C709.457 456.951 701.525 464.883 701.525 474.667V487.377" stroke="#B60808" stroke-width="8.43976"/>
<ellipse cx="719.374" cy="503.038" rx="7.9922" ry="6.71162" fill="white"/>
<path d="M719.374 506.17V515.342" stroke="white" stroke-width="8.43976" stroke-linecap="round"/>
</g>
<path d="M969.509 488.995V460.196C974.786 460.468 979.137 460.314 983.329 459.543C987.894 458.702 992.152 457.152 997.125 454.777C1002 457.023 1006.18 458.577 1010.71 459.452C1014.9 460.262 1019.29 460.471 1024.7 460.196V489.011C1024.55 495.03 1023.98 499.132 1022.97 502.192C1021.99 505.174 1020.56 507.245 1018.51 509.165C1016.36 511.168 1013.56 512.991 1009.69 515.49L1009.62 515.534C1006.16 517.766 1002 520.456 997.078 524.137C992.373 520.753 988.343 518.311 984.968 516.267L984.938 516.248C981.144 513.95 978.363 512.254 976.196 510.291C972.193 506.664 970.002 501.875 969.509 488.995Z" fill="#B60808" stroke="#B60808" stroke-width="5.01748"/>
<path d="M1129.51 527C1151.67 527 1159.33 511.273 1160.02 470.34C1144.72 467.434 1140.04 471.066 1129.51 476.514C1121.89 464.028 1114.99 463.793 1099.31 459.807V473.608C1102.76 513.059 1107.35 527 1129.51 527Z" fill="#B60808"/>
<path d="M1129.51 450C1143.28 459.862 1147.13 466.765 1148.38 481.054H1110.64C1110.64 481.054 1112.98 469.386 1115.54 464.892C1118.45 459.807 1122.81 455.385 1129.51 450Z" fill="#B60808"/>
<path d="M1160.02 470.845C1143.86 468.13 1132.43 473.524 1124.52 481.699M1110.09 520.79C1106.84 528.01 1107.99 498.782 1124.52 481.699M1099 460.17C1119.29 463.273 1124.56 468.156 1124.52 481.699" stroke="white" stroke-width="2.17924"/>
<circle cx="1250.63" cy="514.177" r="8.11667" transform="rotate(27.1071 1250.63 514.177)" fill="white" stroke="#B60808" stroke-width="5.41111"/>
<circle cx="1265.32" cy="521.697" r="8.11667" transform="rotate(27.1071 1265.32 521.697)" fill="white" stroke="#B60808" stroke-width="5.41111"/>
<circle cx="1252.86" cy="527.932" r="5.81694" transform="rotate(27.1071 1252.86 527.932)" fill="white" stroke="#B60808" stroke-width="5.41111"/>
<path d="M1292.04 460.602C1293.06 458.607 1292.27 456.162 1290.27 455.14C1288.28 454.119 1285.83 454.909 1284.81 456.904L1292.04 460.602ZM1264.79 513.827L1292.04 460.602L1284.81 456.904L1257.57 510.129L1264.79 513.827Z" fill="#B60808"/>
<rect x="1287.56" y="460.439" width="6.76389" height="16.2333" transform="rotate(27.1071 1287.56 460.439)" fill="#B60808"/>
<path d="M1296.66 471.173C1297.99 471.854 1299.62 471.328 1300.3 469.997C1300.98 468.667 1300.45 467.037 1299.12 466.356L1296.66 471.173ZM1286.3 465.872L1296.66 471.173L1299.12 466.356L1288.77 461.055L1286.3 465.872Z" fill="#B60808"/>
<path d="M1290.21 474.863C1291.54 475.544 1293.17 475.018 1293.85 473.687C1294.53 472.357 1294.01 470.727 1292.67 470.046L1290.21 474.863ZM1279.85 469.562L1290.21 474.863L1292.67 470.046L1282.32 464.745L1279.85 469.562Z" fill="#B60808"/>
<path d="M1289.18 481.629C1290.51 482.31 1292.14 481.784 1292.82 480.454C1293.5 479.124 1292.97 477.493 1291.64 476.812L1289.18 481.629ZM1278.82 476.328L1289.18 481.629L1291.64 476.812L1281.29 471.511L1278.82 476.328Z" fill="#B60808"/>
<g filter="url(#filter8_d_11_970)">
<rect x="1372" y="33.1264" width="52.7485" height="44.2967" rx="8.43976" fill="#B60808"/>
<path d="M1415.96 37.3771V24.6672C1415.96 14.8829 1408.03 6.95111 1398.24 6.95111V6.95111C1388.46 6.95111 1380.52 14.8828 1380.52 24.6671V37.3771" stroke="#B60808" stroke-width="8.43976"/>
<ellipse cx="1398.37" cy="53.0375" rx="7.9922" ry="6.71162" fill="white"/>
<path d="M1398.37 56.1697V65.3422" stroke="white" stroke-width="8.43976" stroke-linecap="round"/>
</g>
<g filter="url(#filter9_d_11_970)">
<rect x="1372" y="181.126" width="52.7485" height="44.2967" rx="8.43976" fill="#B60808"/>
<path d="M1415.96 185.377V172.667C1415.96 162.883 1408.03 154.951 1398.24 154.951V154.951C1388.46 154.951 1380.52 162.883 1380.52 172.667V185.377" stroke="#B60808" stroke-width="8.43976"/>
<ellipse cx="1398.37" cy="201.038" rx="7.9922" ry="6.71162" fill="white"/>
<path d="M1398.37 204.17V213.342" stroke="white" stroke-width="8.43976" stroke-linecap="round"/>
</g>
<g filter="url(#filter10_d_11_970)">
<rect x="1372" y="329.126" width="52.7485" height="44.2967" rx="8.43976" fill="#B60808"/>
<path d="M1415.96 333.377V320.667C1415.96 310.883 1408.03 302.951 1398.24 302.951V302.951C1388.46 302.951 1380.52 310.883 1380.52 320.667V333.377" stroke="#B60808" stroke-width="8.43976"/>
<ellipse cx="1398.37" cy="349.038" rx="7.9922" ry="6.71162" fill="white"/>
<path d="M1398.37 352.17V361.342" stroke="white" stroke-width="8.43976" stroke-linecap="round"/>
</g>
<g filter="url(#filter11_d_11_970)">
<rect x="1372" y="477.126" width="52.7485" height="44.2967" rx="8.43976" fill="#B60808"/>
<path d="M1415.96 481.377V468.667C1415.96 458.883 1408.03 450.951 1398.24 450.951V450.951C1388.46 450.951 1380.52 458.883 1380.52 468.667V481.377" stroke="#B60808" stroke-width="8.43976"/>
<ellipse cx="1398.37" cy="497.038" rx="7.9922" ry="6.71162" fill="white"/>
<path d="M1398.37 500.17V509.342" stroke="white" stroke-width="8.43976" stroke-linecap="round"/>
</g>
<defs>
<filter id="filter0_d_11_970" x="0" y="2.7312" width="56.9684" height="78.9118" filterUnits="userSpaceOnUse" color-interpolation-filters="sRGB">
<feFlood flood-opacity="0" result="BackgroundImageFix"/>
<feColorMatrix in="SourceAlpha" type="matrix" values="0 0 0 0 0 0 0 0 0 0 0 0 0 0 0 0 0 0 127 0" result="hardAlpha"/>
<feOffset dx="2.10994" dy="2.10994"/>
<feGaussianBlur stdDeviation="1.05497"/>
<feComposite in2="hardAlpha" operator="out"/>
<feColorMatrix type="matrix" values="0 0 0 0 0 0 0 0 0 0 0 0 0 0 0 0 0 0 0.25 0"/>
<feBlend mode="normal" in2="BackgroundImageFix" result="effect1_dropShadow_11_970"/>
<feBlend mode="normal" in="SourceGraphic" in2="effect1_dropShadow_11_970" result="shape"/>
</filter>
<filter id="filter1_d_11_970" x="0" y="150.731" width="56.9684" height="78.9118" filterUnits="userSpaceOnUse" color-interpolation-filters="sRGB">
<feFlood flood-opacity="0" result="BackgroundImageFix"/>
<feColorMatrix in="SourceAlpha" type="matrix" values="0 0 0 0 0 0 0 0 0 0 0 0 0 0 0 0 0 0 127 0" result="hardAlpha"/>
<feOffset dx="2.10994" dy="2.10994"/>
<feGaussianBlur stdDeviation="1.05497"/>
<feComposite in2="hardAlpha" operator="out"/>
<feColorMatrix type="matrix" values="0 0 0 0 0 0 0 0 0 0 0 0 0 0 0 0 0 0 0.25 0"/>
<feBlend mode="normal" in2="BackgroundImageFix" result="effect1_dropShadow_11_970"/>
<feBlend mode="normal" in="SourceGraphic" in2="effect1_dropShadow_11_970" result="shape"/>
</filter>
<filter id="filter2_d_11_970" x="0" y="298.731" width="56.9684" height="78.9118" filterUnits="userSpaceOnUse" color-interpolation-filters="sRGB">
<feFlood flood-opacity="0" result="BackgroundImageFix"/>
<feColorMatrix in="SourceAlpha" type="matrix" values="0 0 0 0 0 0 0 0 0 0 0 0 0 0 0 0 0 0 127 0" result="hardAlpha"/>
<feOffset dx="2.10994" dy="2.10994"/>
<feGaussianBlur stdDeviation="1.05497"/>
<feComposite in2="hardAlpha" operator="out"/>
<feColorMatrix type="matrix" values="0 0 0 0 0 0 0 0 0 0 0 0 0 0 0 0 0 0 0.25 0"/>
<feBlend mode="normal" in2="BackgroundImageFix" result="effect1_dropShadow_11_970"/>
<feBlend mode="normal" in="SourceGraphic" in2="effect1_dropShadow_11_970" result="shape"/>
</filter>
<filter id="filter3_d_11_970" x="0" y="446.731" width="56.9684" height="78.9118" filterUnits="userSpaceOnUse" color-interpolation-filters="sRGB">
<feFlood flood-opacity="0" result="BackgroundImageFix"/>
<feColorMatrix in="SourceAlpha" type="matrix" values="0 0 0 0 0 0 0 0 0 0 0 0 0 0 0 0 0 0 127 0" result="hardAlpha"/>
<feOffset dx="2.10994" dy="2.10994"/>
<feGaussianBlur stdDeviation="1.05497"/>
<feComposite in2="hardAlpha" operator="out"/>
<feColorMatrix type="matrix" values="0 0 0 0 0 0 0 0 0 0 0 0 0 0 0 0 0 0 0.25 0"/>
<feBlend mode="normal" in2="BackgroundImageFix" result="effect1_dropShadow_11_970"/>
<feBlend mode="normal" in="SourceGraphic" in2="effect1_dropShadow_11_970" result="shape"/>
</filter>
<filter id="filter4_d_11_970" x="693" y="2.7312" width="56.9684" height="78.9118" filterUnits="userSpaceOnUse" color-interpolation-filters="sRGB">
<feFlood flood-opacity="0" result="BackgroundImageFix"/>
<feColorMatrix in="SourceAlpha" type="matrix" values="0 0 0 0 0 0 0 0 0 0 0 0 0 0 0 0 0 0 127 0" result="hardAlpha"/>
<feOffset dx="2.10994" dy="2.10994"/>
<feGaussianBlur stdDeviation="1.05497"/>
<feComposite in2="hardAlpha" operator="out"/>
<feColorMatrix type="matrix" values="0 0 0 0 0 0 0 0 0 0 0 0 0 0 0 0 0 0 0.25 0"/>
<feBlend mode="normal" in2="BackgroundImageFix" result="effect1_dropShadow_11_970"/>
<feBlend mode="normal" in="SourceGraphic" in2="effect1_dropShadow_11_970" result="shape"/>
</filter>
<filter id="filter5_d_11_970" x="693" y="152.731" width="56.9684" height="78.9118" filterUnits="userSpaceOnUse" color-interpolation-filters="sRGB">
<feFlood flood-opacity="0" result="BackgroundImageFix"/>
<feColorMatrix in="SourceAlpha" type="matrix" values="0 0 0 0 0 0 0 0 0 0 0 0 0 0 0 0 0 0 127 0" result="hardAlpha"/>
<feOffset dx="2.10994" dy="2.10994"/>
<feGaussianBlur stdDeviation="1.05497"/>
<feComposite in2="hardAlpha" operator="out"/>
<feColorMatrix type="matrix" values="0 0 0 0 0 0 0 0 0 0 0 0 0 0 0 0 0 0 0.25 0"/>
<feBlend mode="normal" in2="BackgroundImageFix" result="effect1_dropShadow_11_970"/>
<feBlend mode="normal" in="SourceGraphic" in2="effect1_dropShadow_11_970" result="shape"/>
</filter>
<filter id="filter6_d_11_970" x="693" y="302.731" width="56.9684" height="78.9118" filterUnits="userSpaceOnUse" color-interpolation-filters="sRGB">
<feFlood flood-opacity="0" result="BackgroundImageFix"/>
<feColorMatrix in="SourceAlpha" type="matrix" values="0 0 0 0 0 0 0 0 0 0 0 0 0 0 0 0 0 0 127 0" result="hardAlpha"/>
<feOffset dx="2.10994" dy="2.10994"/>
<feGaussianBlur stdDeviation="1.05497"/>
<feComposite in2="hardAlpha" operator="out"/>
<feColorMatrix type="matrix" values="0 0 0 0 0 0 0 0 0 0 0 0 0 0 0 0 0 0 0.25 0"/>
<feBlend mode="normal" in2="BackgroundImageFix" result="effect1_dropShadow_11_970"/>
<feBlend mode="normal" in="SourceGraphic" in2="effect1_dropShadow_11_970" result="shape"/>
</filter>
<filter id="filter7_d_11_970" x="693" y="452.731" width="56.9684" height="78.9118" filterUnits="userSpaceOnUse" color-interpolation-filters="sRGB">
<feFlood flood-opacity="0" result="BackgroundImageFix"/>
<feColorMatrix in="SourceAlpha" type="matrix" values="0 0 0 0 0 0 0 0 0 0 0 0 0 0 0 0 0 0 127 0" result="hardAlpha"/>
<feOffset dx="2.10994" dy="2.10994"/>
<feGaussianBlur stdDeviation="1.05497"/>
<feComposite in2="hardAlpha" operator="out"/>
<feColorMatrix type="matrix" values="0 0 0 0 0 0 0 0 0 0 0 0 0 0 0 0 0 0 0.25 0"/>
<feBlend mode="normal" in2="BackgroundImageFix" result="effect1_dropShadow_11_970"/>
<feBlend mode="normal" in="SourceGraphic" in2="effect1_dropShadow_11_970" result="shape"/>
</filter>
<filter id="filter8_d_11_970" x="1372" y="2.7312" width="56.9684" height="78.9118" filterUnits="userSpaceOnUse" color-interpolation-filters="sRGB">
<feFlood flood-opacity="0" result="BackgroundImageFix"/>
<feColorMatrix in="SourceAlpha" type="matrix" values="0 0 0 0 0 0 0 0 0 0 0 0 0 0 0 0 0 0 127 0" result="hardAlpha"/>
<feOffset dx="2.10994" dy="2.10994"/>
<feGaussianBlur stdDeviation="1.05497"/>
<feComposite in2="hardAlpha" operator="out"/>
<feColorMatrix type="matrix" values="0 0 0 0 0 0 0 0 0 0 0 0 0 0 0 0 0 0 0.25 0"/>
<feBlend mode="normal" in2="BackgroundImageFix" result="effect1_dropShadow_11_970"/>
<feBlend mode="normal" in="SourceGraphic" in2="effect1_dropShadow_11_970" result="shape"/>
</filter>
<filter id="filter9_d_11_970" x="1372" y="150.731" width="56.9684" height="78.9118" filterUnits="userSpaceOnUse" color-interpolation-filters="sRGB">
<feFlood flood-opacity="0" result="BackgroundImageFix"/>
<feColorMatrix in="SourceAlpha" type="matrix" values="0 0 0 0 0 0 0 0 0 0 0 0 0 0 0 0 0 0 127 0" result="hardAlpha"/>
<feOffset dx="2.10994" dy="2.10994"/>
<feGaussianBlur stdDeviation="1.05497"/>
<feComposite in2="hardAlpha" operator="out"/>
<feColorMatrix type="matrix" values="0 0 0 0 0 0 0 0 0 0 0 0 0 0 0 0 0 0 0.25 0"/>
<feBlend mode="normal" in2="BackgroundImageFix" result="effect1_dropShadow_11_970"/>
<feBlend mode="normal" in="SourceGraphic" in2="effect1_dropShadow_11_970" result="shape"/>
</filter>
<filter id="filter10_d_11_970" x="1372" y="298.731" width="56.9684" height="78.9118" filterUnits="userSpaceOnUse" color-interpolation-filters="sRGB">
<feFlood flood-opacity="0" result="BackgroundImageFix"/>
<feColorMatrix in="SourceAlpha" type="matrix" values="0 0 0 0 0 0 0 0 0 0 0 0 0 0 0 0 0 0 127 0" result="hardAlpha"/>
<feOffset dx="2.10994" dy="2.10994"/>
<feGaussianBlur stdDeviation="1.05497"/>
<feComposite in2="hardAlpha" operator="out"/>
<feColorMatrix type="matrix" values="0 0 0 0 0 0 0 0 0 0 0 0 0 0 0 0 0 0 0.25 0"/>
<feBlend mode="normal" in2="BackgroundImageFix" result="effect1_dropShadow_11_970"/>
<feBlend mode="normal" in="SourceGraphic" in2="effect1_dropShadow_11_970" result="shape"/>
</filter>
<filter id="filter11_d_11_970" x="1372" y="446.731" width="56.9684" height="78.9118" filterUnits="userSpaceOnUse" color-interpolation-filters="sRGB">
<feFlood flood-opacity="0" result="BackgroundImageFix"/>
<feColorMatrix in="SourceAlpha" type="matrix" values="0 0 0 0 0 0 0 0 0 0 0 0 0 0 0 0 0 0 127 0" result="hardAlpha"/>
<feOffset dx="2.10994" dy="2.10994"/>
<feGaussianBlur stdDeviation="1.05497"/>
<feComposite in2="hardAlpha" operator="out"/>
<feColorMatrix type="matrix" values="0 0 0 0 0 0 0 0 0 0 0 0 0 0 0 0 0 0 0.25 0"/>
<feBlend mode="normal" in2="BackgroundImageFix" result="effect1_dropShadow_11_970"/>
<feBlend mode="normal" in="SourceGraphic" in2="effect1_dropShadow_11_970" result="shape"/>
</filter>
</defs>
</svg>
