<svg width="108" height="163" viewBox="0 0 108 163" fill="none" xmlns="http://www.w3.org/2000/svg">
<g clip-path="url(#clip0_84_835)">
<path d="M107.16 33.6756V162.162H6.42578V33.6756H27.5515V44.6662H85.5462V33.6756H107.16Z" fill="white" stroke="black" stroke-width="3" stroke-linecap="round" stroke-linejoin="round"/>
<path d="M24.2891 92.9178H53.4714" stroke="black" stroke-miterlimit="10" stroke-linecap="round"/>
<path d="M24.2891 110.158H73.1506" stroke="black" stroke-miterlimit="10" stroke-linecap="round"/>
<path d="M24.2891 127.197H88.7089" stroke="black" stroke-miterlimit="10" stroke-linecap="round"/>
<path d="M56.8342 25.8682C58.5063 25.8682 59.8618 24.5181 59.8618 22.8525C59.8618 21.187 58.5063 19.8368 56.8342 19.8368C55.1621 19.8368 53.8066 21.187 53.8066 22.8525C53.8066 24.5181 55.1621 25.8682 56.8342 25.8682Z" stroke="black" stroke-miterlimit="10"/>
<path d="M63.1602 92.9178H81.7797" stroke="black" stroke-miterlimit="10" stroke-linecap="round"/>
<path d="M79.6758 110.158H89.9359" stroke="black" stroke-miterlimit="10" stroke-linecap="round"/>
<path d="M24.2891 77.4036H35.6424" stroke="black" stroke-miterlimit="10" stroke-linecap="round"/>
<path d="M41.2266 77.4036H77.8096" stroke="black" stroke-linecap="round" stroke-linejoin="round"/>
<path d="M101.576 28.7332V157.203H0.841797V28.7332H21.9843V39.707H79.9622V28.7332H101.576Z" fill="#FBFBFB" stroke="black" stroke-width="3" stroke-linecap="round" stroke-linejoin="round"/>
<path d="M79.9623 20.2891V39.7071H21.9844V20.2891H34.2965C34.1956 19.5017 34.1283 18.6975 34.1283 17.8933C34.1283 8.47755 41.7981 0.837708 51.2508 0.837708C60.7036 0.837708 68.3734 8.47755 68.3734 17.8933C68.3734 18.6975 68.3061 19.5017 68.2052 20.2891H79.9454H79.9623Z" fill="white" stroke="black" stroke-width="3" stroke-linecap="round" stroke-linejoin="round"/>
<path d="M18.7051 87.9755H47.8874" stroke="black" stroke-width="3" stroke-miterlimit="10" stroke-linecap="round"/>
<path d="M18.7051 105.199H67.5666" stroke="black" stroke-width="3" stroke-miterlimit="10" stroke-linecap="round"/>
<path d="M18.7051 122.237H83.1249" stroke="black" stroke-width="3" stroke-miterlimit="10" stroke-linecap="round"/>
<path d="M51.2502 20.909C52.9223 20.909 54.2778 19.5588 54.2778 17.8933C54.2778 16.2278 52.9223 14.8776 51.2502 14.8776C49.5781 14.8776 48.2227 16.2278 48.2227 17.8933C48.2227 19.5588 49.5781 20.909 51.2502 20.909Z" stroke="black" stroke-width="3" stroke-miterlimit="10"/>
<path d="M57.5742 87.9755H76.1937" stroke="black" stroke-width="3" stroke-miterlimit="10" stroke-linecap="round"/>
<path d="M74.0918 105.199H84.3519" stroke="black" stroke-width="3" stroke-miterlimit="10" stroke-linecap="round"/>
<path d="M18.7051 72.4445H30.0585" stroke="black" stroke-width="3" stroke-miterlimit="10" stroke-linecap="round"/>
<path d="M35.6426 72.4445H72.2257" stroke="black" stroke-width="3" stroke-linecap="round" stroke-linejoin="round"/>
<path d="M18.7051 138.991H30.0585" stroke="black" stroke-width="3" stroke-miterlimit="10" stroke-linecap="round"/>
<path d="M35.6426 138.991H72.2257" stroke="black" stroke-width="3" stroke-linecap="round" stroke-linejoin="round"/>
</g>
<defs>
<clipPath id="clip0_84_835">
<rect width="108" height="163" fill="white"/>
</clipPath>
</defs>
</svg>
