<svg width="261" height="341" viewBox="0 0 261 341" fill="none" xmlns="http://www.w3.org/2000/svg">
<path d="M111.246 7.22666L113.508 10.2494L115.77 7.22666C117.619 4.7556 119.847 3.33296 121.941 2.94032C123.939 2.56574 126.128 3.06132 128.256 5.05778C130.467 7.13068 131.104 9.40525 130.786 11.9323C130.446 14.6361 128.98 17.7327 126.659 21.005C124.724 23.7338 121.718 26.7666 118.797 29.3087C116.67 31.1597 114.769 32.594 113.508 33.4258C112.247 32.594 110.346 31.1597 108.219 29.3087C105.298 26.7666 102.292 23.7338 100.356 21.005C98.0356 17.7327 96.5699 14.6361 96.2296 11.9323C95.9116 9.40525 96.5493 7.13068 98.7594 5.05778C100.888 3.06132 103.076 2.56574 105.074 2.94032C107.169 3.33296 109.397 4.7556 111.246 7.22666Z" fill="#B60808" stroke="#B60808" stroke-width="5.64955"/>
<circle cx="75.5143" cy="68.5777" r="34.5253" fill="#B60808"/>
<circle cx="34.5253" cy="34.5253" r="34.5253" transform="matrix(-1 0 0 1 182.559 36.89)" fill="#B60808"/>
<rect x="29.6543" y="97.7429" width="69.0506" height="130.534" rx="15.765" transform="rotate(13.1309 29.6543 97.7429)" fill="#B60808"/>
<rect width="69.0506" height="130.534" rx="15.765" transform="matrix(-0.973854 0.227176 0.227176 0.973854 193.893 100.581)" fill="#B60808"/>
<rect x="20.1792" y="207.467" width="35.6289" height="130.534" rx="15.765" fill="#B60808"/>
<rect width="35.6289" height="130.534" rx="15.765" transform="matrix(-1 0 0 1 203.368 210.305)" fill="#B60808"/>
<rect width="35.6289" height="79.4555" rx="15.765" transform="matrix(0.546697 0.837331 0.837331 -0.546697 174.991 268.499)" fill="#B60808"/>
<path d="M186.657 147.245C172.469 194.382 157.527 193.401 139.993 177.671" stroke="white" stroke-width="0.945899"/>
<path d="M132.583 146.141C163.483 166.478 160.015 161.433 169.316 142.515" stroke="white" stroke-width="0.945899"/>
<rect width="21.6104" height="60.0715" rx="10.8052" transform="matrix(-0.531989 0.846751 0.846751 0.531989 121.536 139.993)" fill="#B60808"/>
<path d="M38.1513 144.407C52.3398 191.545 67.2814 190.564 84.8157 174.834" stroke="white" stroke-width="0.945899"/>
<path d="M92.2251 143.304C61.3257 163.641 64.794 158.596 55.4927 139.678" stroke="white" stroke-width="0.945899"/>
<rect x="103.273" y="137.155" width="21.6104" height="60.0715" rx="10.8052" transform="rotate(57.86 103.273 137.155)" fill="#B60808"/>
<path d="M204 292C180.5 306 167 288 167 252" stroke="white" stroke-width="0.945899"/>
</svg>
