<svg width="37" height="40" viewBox="0 0 37 40" fill="none" xmlns="http://www.w3.org/2000/svg">
<path d="M1.64648 12.2C1.64648 8.63333 3.19648 5.83333 6.29648 3.8C9.39648 1.76666 12.9632 0.749998 16.9965 0.749998C22.1632 0.749998 26.6965 2.23333 30.5965 5.2C32.5298 6.7 34.0298 8.7 35.0965 11.2C36.1632 13.6667 36.6965 16.4 36.6965 19.4C36.6965 25.3 35.0132 30.1 31.6465 33.8C28.1465 37.5667 23.7632 39.45 18.4965 39.45C17.3298 39.45 16.0965 39.3 14.7965 39C13.4965 38.7 12.4632 38.3 11.6965 37.8C10.4632 38.7333 8.87982 39.2 6.94648 39.2C5.04648 39.2 3.56315 38.6667 2.49648 37.6C1.42982 36.5333 0.896484 35.1667 0.896484 33.5C0.896484 29.5667 3.87982 26.2167 9.84648 23.45C10.0132 22.05 10.2465 20.1667 10.5465 17.8C10.8798 15.4 11.1298 13.4667 11.2965 12C11.4965 10.5333 11.6298 9.56666 11.6965 9.1C13.0632 8.23333 14.6465 7.8 16.4465 7.8C17.2798 7.8 18.0798 7.88333 18.8465 8.05L15.6965 29.4C15.3965 31.3 14.9798 32.8833 14.4465 34.15C15.4798 34.4167 16.3132 34.55 16.9465 34.55C20.7798 34.55 23.7465 33.1 25.8465 30.2C28.0132 27.1667 29.0965 23.5 29.0965 19.2C29.0965 13.7 27.1132 9.75 23.1465 7.35C20.9465 6.01667 18.5298 5.35 15.8965 5.35C12.5298 5.35 9.86315 6.26666 7.89648 8.1C6.76315 9.13333 6.19648 10.3833 6.19648 11.85C6.19648 12.6167 6.42982 13.35 6.89648 14.05C7.36315 14.7167 8.17982 15.1 9.34649 15.2L8.84648 18.45C6.41315 18.3167 4.59648 17.65 3.39648 16.45C2.22982 15.2167 1.64648 13.8 1.64648 12.2ZM4.59648 32.85C4.59648 34.05 5.16315 34.65 6.29648 34.65C6.76315 34.65 7.24648 34.35 7.74648 33.75C8.27982 33.1167 8.64648 32.1333 8.84648 30.8L9.29649 27.7C6.16315 29.4667 4.59648 31.1833 4.59648 32.85Z" fill="#5F4867"/>
</svg>
