<svg width="120" height="44" viewBox="0 0 120 44" fill="none" xmlns="http://www.w3.org/2000/svg">
<path d="M1.48535 12.2C1.48535 8.63333 3.03535 5.83333 6.13535 3.8C9.23535 1.76666 12.802 0.749998 16.8354 0.749998C22.002 0.749998 26.5354 2.23333 30.4354 5.2C32.3687 6.7 33.8687 8.7 34.9354 11.2C36.002 13.6667 36.5354 16.4 36.5354 19.4C36.5354 25.3 34.852 30.1 31.4854 33.8C27.9854 37.5667 23.602 39.45 18.3354 39.45C17.1687 39.45 15.9354 39.3 14.6354 39C13.3354 38.7 12.302 38.3 11.5354 37.8C10.302 38.7333 8.71869 39.2 6.78535 39.2C4.88535 39.2 3.40202 38.6667 2.33535 37.6C1.26868 36.5333 0.735352 35.1667 0.735352 33.5C0.735352 29.5667 3.71869 26.2167 9.68535 23.45C9.85202 22.05 10.0854 20.1667 10.3854 17.8C10.7187 15.4 10.9687 13.4667 11.1354 12C11.3354 10.5333 11.4687 9.56666 11.5354 9.1C12.902 8.23333 14.4854 7.8 16.2854 7.8C17.1187 7.8 17.9187 7.88333 18.6854 8.05L15.5354 29.4C15.2354 31.3 14.8187 32.8833 14.2854 34.15C15.3187 34.4167 16.152 34.55 16.7854 34.55C20.6187 34.55 23.5854 33.1 25.6854 30.2C27.852 27.1667 28.9354 23.5 28.9354 19.2C28.9354 13.7 26.952 9.75 22.9854 7.35C20.7854 6.01667 18.3687 5.35 15.7354 5.35C12.3687 5.35 9.70202 6.26666 7.73535 8.1C6.60202 9.13333 6.03535 10.3833 6.03535 11.85C6.03535 12.6167 6.26869 13.35 6.73535 14.05C7.20202 14.7167 8.01869 15.1 9.18535 15.2L8.68535 18.45C6.25202 18.3167 4.43535 17.65 3.23535 16.45C2.06869 15.2167 1.48535 13.8 1.48535 12.2ZM4.43535 32.85C4.43535 34.05 5.00202 34.65 6.13535 34.65C6.60202 34.65 7.08535 34.35 7.58535 33.75C8.11869 33.1167 8.48535 32.1333 8.68535 30.8L9.13535 27.7C6.00202 29.4667 4.43535 31.1833 4.43535 32.85ZM43.8924 2.2C44.659 1.4 45.5924 0.999997 46.6924 0.999997C47.7924 0.999997 48.7257 1.4 49.4924 2.2C50.2924 2.96666 50.6924 3.9 50.6924 5C50.6924 6.1 50.2924 7.03333 49.4924 7.8C48.7257 8.56667 47.7924 8.95 46.6924 8.95C45.5924 8.95 44.659 8.56667 43.8924 7.8C43.1257 7.03333 42.7424 6.1 42.7424 5C42.7424 3.9 43.1257 2.96666 43.8924 2.2ZM41.8424 16.85C42.1757 16.25 42.809 15.8 43.7424 15.5C44.6757 15.1667 45.5924 15 46.4924 15C47.4257 15 48.2424 15.1167 48.9424 15.35C47.6424 25.3833 46.9924 30.45 46.9924 30.55C46.8257 31.2167 46.7424 31.7833 46.7424 32.25C46.7424 32.6833 46.7757 33.0667 46.8424 33.4C46.9757 34.2667 47.5757 34.7 48.6424 34.7C49.7424 34.7 50.7424 34 51.6424 32.6C52.5757 31.1667 53.2757 29.55 53.7424 27.75C53.9757 27.8833 54.3424 28.2833 54.8424 28.95C55.3424 29.6167 55.6424 30.1167 55.7424 30.45C55.0757 33.1167 53.9424 35.2667 52.3424 36.9C50.7424 38.5333 48.8257 39.35 46.5924 39.35C44.359 39.35 42.6924 38.8 41.5924 37.7C40.5257 36.6 39.9924 35.1833 39.9924 33.45C39.9924 33.0833 40.009 32.7 40.0424 32.3L41.8424 16.85ZM74.5647 23.7C77.198 25.6333 78.5146 27.9167 78.5146 30.55C78.5146 33.1833 77.4813 35.3 75.4146 36.9C73.348 38.5 70.748 39.3 67.6146 39.3C65.5813 39.3 63.8813 38.8 62.5146 37.8C61.1813 36.7667 60.5146 35.5 60.5146 34C60.5146 32.5 61.0146 31.3167 62.0146 30.45C63.0146 29.55 64.2646 29 65.7646 28.8C65.0646 29.8 64.7146 30.7667 64.7146 31.7C64.7146 32.6 65.0313 33.3333 65.6646 33.9C66.298 34.4667 67.098 34.75 68.0646 34.75C69.0313 34.75 69.8313 34.4 70.4646 33.7C71.098 32.9667 71.4146 32.1333 71.4146 31.2C71.4146 29.6667 70.698 28.3 69.2646 27.1C68.398 26.4 67.4646 25.75 66.4646 25.15C65.4646 24.5167 64.9313 24.1833 64.8646 24.15C64.7313 24.05 64.598 23.9667 64.4646 23.9C63.8646 24.6 62.998 25.5667 61.8646 26.8C60.7313 28 59.8313 28.9667 59.1646 29.7C57.298 31.7333 56.248 33.4333 56.0146 34.8C55.948 35.0667 55.9146 35.5833 55.9146 36.35C55.9146 37.0833 56.1313 37.85 56.5646 38.65C57.0313 39.45 57.5813 40.05 58.2146 40.45C58.848 40.85 59.4646 41.1667 60.0646 41.4C60.698 41.6667 61.2313 41.85 61.6646 41.95C62.1313 42.05 62.3646 42.1167 62.3646 42.15C62.3646 42.3833 61.998 42.65 61.2646 42.95C59.898 43.45 58.4646 43.7 56.9646 43.7C55.498 43.7 54.0646 43.1667 52.6646 42.1C50.7646 40.6333 49.8146 38.6833 49.8146 36.25C49.8146 34.75 50.198 33.2667 50.9646 31.8C52.3313 29.2 55.5313 25.6333 60.5646 21.1C59.3313 19.8667 58.7146 18.55 58.7146 17.15C58.7146 15.75 59.2313 14.5667 60.2646 13.6C61.3313 12.6333 62.5813 12.15 64.0146 12.15C65.3146 12.15 66.448 12.6667 67.4146 13.7C68.048 14.4 68.3646 15.2833 68.3646 16.35C68.3646 17.4167 68.0146 18.6167 67.3146 19.95C70.8813 21.55 73.298 22.8 74.5647 23.7ZM63.7146 18.05C64.5146 17.2167 64.9146 16.6167 64.9146 16.25C64.9146 15.4167 64.548 14.9667 63.8146 14.9C62.9813 14.9 62.5646 15.3667 62.5646 16.3C62.5646 16.8667 62.948 17.45 63.7146 18.05ZM95.0471 33.3L96.2471 22.25C96.2471 21.35 96.0137 20.6 95.5471 20C95.0804 19.4 94.3304 19.1 93.2971 19.1C92.2637 19.1 91.3804 19.5167 90.6471 20.35C89.9471 21.15 89.4304 22.2167 89.0971 23.55C88.8637 25.45 88.5137 28.2333 88.0471 31.9C87.5804 35.5333 87.2804 37.9 87.1471 39H80.4971C82.8971 18.5667 84.3471 6.01667 84.8471 1.35C85.5471 1.08333 86.4971 0.949998 87.6971 0.949998C90.2971 0.949998 91.5971 1.71666 91.5971 3.25V3.55C91.0304 8.78333 90.4304 13.3833 89.7971 17.35C91.5637 15.75 93.5637 14.95 95.7971 14.95C98.0304 14.95 99.7971 15.5167 101.097 16.65C102.397 17.7833 103.047 19.2167 103.047 20.95C103.047 21.4167 102.947 22.2833 102.747 23.55C101.98 28.55 101.597 31.4833 101.597 32.35C101.597 33.9167 102.114 34.7 103.147 34.7C104.014 34.7 104.93 34.1333 105.897 33C106.897 31.8333 107.697 30.05 108.297 27.65C109.43 28.85 110.114 29.8 110.347 30.5C108.614 36.3 105.547 39.2 101.147 39.2C99.0804 39.2 97.5471 38.5667 96.5471 37.3C95.5471 36.0333 95.0471 34.7 95.0471 33.3ZM112.751 33C113.551 32.2 114.517 31.8 115.651 31.8C116.784 31.8 117.751 32.2 118.551 33C119.351 33.8 119.751 34.7667 119.751 35.9C119.751 37.0333 119.351 38 118.551 38.8C117.751 39.5667 116.784 39.95 115.651 39.95C114.517 39.95 113.551 39.5667 112.751 38.8C111.984 38 111.601 37.0333 111.601 35.9C111.601 34.7667 111.984 33.8 112.751 33Z" fill="white"/>
</svg>
