<svg width="145" height="145" viewBox="0 0 145 145" fill="none" xmlns="http://www.w3.org/2000/svg">
<g clip-path="url(#clip0_83_811)">
<path d="M143.934 67.1742C143.934 68.639 142.702 70.0621 140.445 71.4014M143.934 67.1742C143.934 59.6197 111.963 53.4882 72.4897 53.4882C33.0164 53.4882 1.04492 59.6197 1.04492 67.1742M143.934 67.1742V75.6285C143.934 83.183 111.963 89.3145 72.4897 89.3145C33.0164 89.3145 1.04492 83.183 1.04492 75.6285V67.1742M140.445 71.4014C131.125 65.9186 104.231 61.9426 72.4688 61.9426C40.7063 61.9426 13.8335 65.8977 4.53462 71.4014M140.445 71.4014C131.125 76.8841 104.231 80.8392 72.4688 80.8392C40.7063 80.8392 13.8335 76.8841 4.53462 71.4014M1.04492 67.1742C1.04492 68.639 2.27781 70.0621 4.53462 71.4014M4.53462 71.4014C13.8544 65.9186 40.7481 61.9426 72.4897 61.9426C104.231 61.9426 131.146 65.8977 140.466 71.4014C131.146 76.8841 104.231 80.8392 72.4897 80.8392C40.7481 80.8392 13.8544 76.8841 4.53462 71.4014ZM72.4897 32.6873V1.04633M95.9772 32.6873L103.813 8.95656M118.357 41.7275L130.665 24.777M72.4897 137.446V143.954M95.3294 112.313L102.936 136.043M117.083 103.272L123.393 112.313M129.056 119.553L130.665 122.002M49.0021 32.6873L43.4019 18.1433M26.6221 41.7275L14.3141 24.777M40.163 10.0029L37.8017 5.21071M72.4897 112.083V127.024M49.0021 112.083L41.166 135.165M26.6221 103.272L14.3141 119.763" stroke="black" stroke-width="3" stroke-linecap="round"/>
</g>
<defs>
<clipPath id="clip0_83_811">
<rect width="145" height="145" fill="white"/>
</clipPath>
</defs>
</svg>
