<svg width="77" height="71" viewBox="0 0 77 71" fill="none" xmlns="http://www.w3.org/2000/svg">
<path d="M39.8483 66.843L41.7607 62.7335C42.0885 62.9429 42.4181 63.1848 42.7439 63.464L39.8483 66.843ZM42.1624 61.8315C42.2123 61.8526 42.2191 61.8579 42.1773 61.8384C42.1724 61.8362 42.1674 61.8338 42.1624 61.8315ZM46.1015 53.1976C43.1094 55.8069 40.4416 57.8984 38.3973 59.3815C36.3531 57.8984 33.6853 55.8069 30.6932 53.1976C25.2337 48.4363 19.75 42.8669 16.3008 37.9932C12.0358 31.9669 9.61856 26.6286 9.07613 22.309C8.60366 18.5465 9.47216 15.3643 12.7923 12.2437C16.0685 9.16437 19.0908 8.62991 21.6863 9.11753C24.5899 9.66303 28.1047 11.7426 31.2186 15.9131C31.2199 15.9147 31.2211 15.9164 31.2223 15.918C31.6006 16.4249 31.9694 16.9587 32.3267 17.5188L32.3882 17.4796L38.3973 25.5275L44.4064 17.4796L44.468 17.5188C44.8246 16.9596 45.1928 16.4267 45.5705 15.9205C45.5723 15.918 45.5742 15.9156 45.576 15.9131C48.6899 11.7426 52.2048 9.66303 55.1084 9.11753C57.7039 8.62991 60.7261 9.16437 64.0024 12.2437C67.3225 15.3643 68.191 18.5465 67.7185 22.309C67.1761 26.6286 64.7589 31.9669 60.4939 37.9932C57.0446 42.8669 51.561 48.4363 46.1015 53.1976ZM34.6174 61.8384C34.5756 61.8579 34.5824 61.8526 34.6323 61.8315C34.6273 61.8338 34.6223 61.8362 34.6174 61.8384ZM35.0339 62.7335L36.9463 66.843L34.0507 63.464C34.3766 63.1848 34.7062 62.9429 35.0339 62.7335Z" fill="#B60808" stroke="#B60808" stroke-width="17.918"/>
</svg>
