<svg width="74" height="95" viewBox="0 0 74 95" fill="none" xmlns="http://www.w3.org/2000/svg">
<circle cx="18.6329" cy="64.1771" r="8.11667" transform="rotate(27.1071 18.6329 64.1771)" fill="white" stroke="#B60808" stroke-width="5.41111"/>
<circle cx="33.3239" cy="71.6971" r="8.11667" transform="rotate(27.1071 33.3239 71.6971)" fill="white" stroke="#B60808" stroke-width="5.41111"/>
<circle cx="20.8622" cy="77.932" r="5.81694" transform="rotate(27.1071 20.8622 77.932)" fill="white" stroke="#B60808" stroke-width="5.41111"/>
<path d="M60.0381 10.6022C61.0594 8.60703 60.2699 6.16172 58.2747 5.14044C56.2796 4.11915 53.8343 4.90863 52.813 6.90379L60.0381 10.6022ZM32.7932 63.8271L60.0381 10.6022L52.813 6.90379L25.5681 60.1287L32.7932 63.8271Z" fill="#B60808"/>
<rect x="55.563" y="10.4388" width="6.76389" height="16.2333" transform="rotate(27.1071 55.563 10.4388)" fill="#B60808"/>
<path d="M64.6574 21.173C65.9875 21.8539 67.6177 21.3276 68.2985 19.9975C68.9794 18.6674 68.4531 17.0372 67.123 16.3563L64.6574 21.173ZM54.3014 15.872L64.6574 21.173L67.123 16.3563L56.767 11.0553L54.3014 15.872Z" fill="#B60808"/>
<path d="M58.2091 24.863C59.5392 25.5438 61.1694 25.0175 61.8503 23.6874C62.5311 22.3573 62.0048 20.7271 60.6747 20.0462L58.2091 24.863ZM47.8531 19.5619L58.2091 24.863L60.6747 20.0462L50.3187 14.7452L47.8531 19.5619Z" fill="#B60808"/>
<path d="M57.1774 31.6292C58.5075 32.3101 60.1377 31.7837 60.8185 30.4536C61.4994 29.1235 60.9731 27.4933 59.643 26.8125L57.1774 31.6292ZM46.8214 26.3282L57.1774 31.6292L59.643 26.8125L49.287 21.5114L46.8214 26.3282Z" fill="#B60808"/>
</svg>
