<svg width="249" height="48" viewBox="0 0 249 48" fill="none" xmlns="http://www.w3.org/2000/svg">
<path d="M19.6527 38.65C20.0194 38.7833 20.4194 38.85 20.8527 38.85C21.3194 38.85 21.7527 38.8 22.1527 38.7C22.5861 38.6 22.9694 38.3667 23.3027 38C23.6694 37.6 23.9527 37.2833 24.1527 37.05C24.3527 36.8167 24.6027 36.3 24.9027 35.5C25.2694 34.5667 25.7194 33.25 26.2527 31.55C27.6527 32.85 28.4861 33.8333 28.7527 34.5C27.1527 40.3667 24.3361 43.3 20.3027 43.3C18.4027 43.3 15.9861 42.0667 13.0527 39.6C11.5194 42.0667 9.13607 43.3 5.90273 43.3C4.4694 43.3 3.1694 42.8167 2.00273 41.85C0.869401 40.8833 0.302734 39.5 0.302734 37.7C0.302734 35.9 0.902734 34.4333 2.10273 33.3C3.30273 32.1333 4.85273 31.55 6.75273 31.55C7.1194 31.55 7.63607 31.5833 8.30273 31.65L9.00273 25.3C7.53607 25.7667 5.2694 26.3667 2.20273 27.1V23.35C4.70273 22.7833 7.10273 22.15 9.40273 21.45L10.4027 13.3C11.1027 7.73333 13.9361 4.95 18.9027 4.95C20.8694 4.95 22.4361 5.5 23.6027 6.6C24.8027 7.66666 25.4027 9.18333 25.4027 11.15C25.4027 15.8833 22.3527 19.7 16.2527 22.6L14.7527 34.4L14.7027 34.9C17.1694 37.1 18.8194 38.35 19.6527 38.65ZM21.6527 11.55C21.6527 10.15 21.0694 9.45 19.9027 9.45C18.5027 9.45 17.6194 11.1 17.2527 14.4L16.7527 18.35C20.0194 16.4167 21.6527 14.15 21.6527 11.55ZM4.10273 37.35C4.10273 38.35 4.6694 38.85 5.80273 38.85C6.90273 38.85 7.58607 37.8667 7.85273 35.9C7.2194 35.6333 6.6194 35.5 6.05273 35.5C5.5194 35.5 5.05273 35.6833 4.65273 36.05C4.28607 36.4167 4.10273 36.85 4.10273 37.35ZM36.4461 31.8C38.5128 31.3667 40.0461 30.5333 41.0461 29.3C42.0794 28.0667 42.5961 26.8833 42.5961 25.75C42.5961 24.5833 42.2794 23.8 41.6461 23.4C41.0461 22.9667 40.3794 22.75 39.6461 22.75C38.0794 22.75 36.6961 23.6333 35.4961 25.4C34.3294 27.1333 33.7461 29.2167 33.7461 31.65C33.7461 34.05 34.3128 35.85 35.4461 37.05C36.6128 38.2167 38.0461 38.8 39.7461 38.8C42.2461 38.8 44.6461 37.9333 46.9461 36.2C49.2461 34.4667 51.1128 32.2 52.5461 29.4C53.2794 30.1 53.9461 30.9667 54.5461 32C53.4461 34.5 51.4961 36.95 48.6961 39.35C47.2961 40.5167 45.6294 41.4667 43.6961 42.2C41.7961 42.9333 39.8294 43.3 37.7961 43.3C34.4628 43.3 31.8294 42.2833 29.8961 40.25C27.8294 38.05 26.7961 35.2333 26.7961 31.8C26.7961 28.3667 28.0794 25.3667 30.6461 22.8C33.2461 20.2333 36.3461 18.95 39.9461 18.95C42.5128 18.95 44.5961 19.5167 46.1961 20.65C47.7961 21.75 48.6128 23.25 48.6461 25.15C48.6461 27.7167 47.6128 29.8 45.5461 31.4C43.5128 33 40.7128 34.1167 37.1461 34.75L36.4461 31.8ZM63.7371 8.2C63.7371 8.4 63.2871 11.9833 62.3871 18.95H69.7371V22.8H61.8871L61.7371 24.05C65.6371 27.3167 67.5871 30.8833 67.5871 34.75C67.5871 37.7833 66.8038 39.9667 65.2371 41.3C63.7038 42.6333 61.8538 43.3 59.6871 43.3C57.5204 43.3 55.9371 42.7333 54.9371 41.6C53.9371 40.4333 53.4371 39.0333 53.4371 37.4C53.4371 37.0333 53.4704 36.6333 53.5371 36.2L55.0871 22.9L54.8871 22.8H50.8371C50.8038 22.4667 50.7871 21.9333 50.7871 21.2C50.7871 20.4333 50.9371 19.6833 51.2371 18.95H55.5371L57.1371 5.35C57.8371 5.08333 58.7704 4.95 59.9371 4.95C62.4704 4.95 63.7371 6.03333 63.7371 8.2ZM64.2371 34.7C64.2371 32.4 63.2371 30.1333 61.2371 27.9C60.6371 32.8667 60.3371 35.7333 60.3371 36.5C60.3371 38 60.8204 38.75 61.7871 38.75C62.4871 38.75 63.0704 38.4333 63.5371 37.8C64.0038 37.1333 64.2371 36.1 64.2371 34.7ZM72.2746 7.45C72.2746 6.38333 72.6579 5.45 73.4246 4.65C74.2246 3.85 75.2079 3.45 76.3746 3.45C77.5413 3.45 78.5413 3.81667 79.3746 4.55C80.2413 5.28333 80.6746 6.38333 80.6746 7.85C80.6746 9.28333 79.9413 10.9667 78.4746 12.9C77.0079 14.8 75.5746 16.3167 74.1746 17.45C74.1079 17.4833 73.9746 17.5 73.7746 17.5C73.5746 17.5 73.1746 17.4 72.5746 17.2C71.9746 17 71.6079 16.8333 71.4746 16.7C73.0413 14.9 74.4079 13.1667 75.5746 11.5C74.6413 11.3333 73.8579 10.8833 73.2246 10.15C72.5913 9.38333 72.2746 8.48333 72.2746 7.45ZM106.976 27.7C109.609 29.6333 110.926 31.9167 110.926 34.55C110.926 37.1833 109.892 39.3 107.826 40.9C105.759 42.5 103.159 43.3 100.026 43.3C97.9924 43.3 96.2924 42.8 94.9258 41.8C93.5924 40.7667 92.9258 39.5 92.9258 38C92.9258 36.5 93.4258 35.3167 94.4258 34.45C95.4258 33.55 96.6758 33 98.1758 32.8C97.4758 33.8 97.1258 34.7667 97.1258 35.7C97.1258 36.6 97.4424 37.3333 98.0758 37.9C98.7091 38.4667 99.5091 38.75 100.476 38.75C101.442 38.75 102.242 38.4 102.876 37.7C103.509 36.9667 103.826 36.1333 103.826 35.2C103.826 33.6667 103.109 32.3 101.676 31.1C100.809 30.4 99.8758 29.75 98.8758 29.15C97.8758 28.5167 97.3424 28.1833 97.2758 28.15C97.1424 28.05 97.0091 27.9667 96.8758 27.9C96.2758 28.6 95.4091 29.5667 94.2758 30.8C93.1424 32 92.2424 32.9667 91.5758 33.7C89.7091 35.7333 88.6591 37.4333 88.4258 38.8C88.3591 39.0667 88.3258 39.5833 88.3258 40.35C88.3258 41.0833 88.5424 41.85 88.9758 42.65C89.4424 43.45 89.9924 44.05 90.6258 44.45C91.2591 44.85 91.8758 45.1667 92.4758 45.4C93.1091 45.6667 93.6424 45.85 94.0758 45.95C94.5424 46.05 94.7758 46.1167 94.7758 46.15C94.7758 46.3833 94.4091 46.65 93.6758 46.95C92.3091 47.45 90.8758 47.7 89.3758 47.7C87.9091 47.7 86.4758 47.1667 85.0758 46.1C83.1758 44.6333 82.2258 42.6833 82.2258 40.25C82.2258 38.75 82.6091 37.2667 83.3758 35.8C84.7424 33.2 87.9424 29.6333 92.9758 25.1C91.7424 23.8667 91.1258 22.55 91.1258 21.15C91.1258 19.75 91.6424 18.5667 92.6758 17.6C93.7424 16.6333 94.9924 16.15 96.4258 16.15C97.7258 16.15 98.8591 16.6667 99.8258 17.7C100.459 18.4 100.776 19.2833 100.776 20.35C100.776 21.4167 100.426 22.6167 99.7258 23.95C103.292 25.55 105.709 26.8 106.976 27.7ZM96.1258 22.05C96.9258 21.2167 97.3258 20.6167 97.3258 20.25C97.3258 19.4167 96.9591 18.9667 96.2258 18.9C95.3924 18.9 94.9758 19.3667 94.9758 20.3C94.9758 20.8667 95.3591 21.45 96.1258 22.05ZM127.395 16.2C127.395 12.6333 128.945 9.83333 132.045 7.8C135.145 5.76666 138.711 4.75 142.745 4.75C147.911 4.75 152.445 6.23333 156.345 9.2C158.278 10.7 159.778 12.7 160.845 15.2C161.911 17.6667 162.445 20.4 162.445 23.4C162.445 29.3 160.761 34.1 157.395 37.8C153.895 41.5667 149.511 43.45 144.245 43.45C143.078 43.45 141.845 43.3 140.545 43C139.245 42.7 138.211 42.3 137.445 41.8C136.211 42.7333 134.628 43.2 132.695 43.2C130.795 43.2 129.311 42.6667 128.245 41.6C127.178 40.5333 126.645 39.1667 126.645 37.5C126.645 33.5667 129.628 30.2167 135.595 27.45C135.761 26.05 135.995 24.1667 136.295 21.8C136.628 19.4 136.878 17.4667 137.045 16C137.245 14.5333 137.378 13.5667 137.445 13.1C138.811 12.2333 140.395 11.8 142.195 11.8C143.028 11.8 143.828 11.8833 144.595 12.05L141.445 33.4C141.145 35.3 140.728 36.8833 140.195 38.15C141.228 38.4167 142.061 38.55 142.695 38.55C146.528 38.55 149.495 37.1 151.595 34.2C153.761 31.1667 154.845 27.5 154.845 23.2C154.845 17.7 152.861 13.75 148.895 11.35C146.695 10.0167 144.278 9.35 141.645 9.35C138.278 9.35 135.611 10.2667 133.645 12.1C132.511 13.1333 131.945 14.3833 131.945 15.85C131.945 16.6167 132.178 17.35 132.645 18.05C133.111 18.7167 133.928 19.1 135.095 19.2L134.595 22.45C132.161 22.3167 130.345 21.65 129.145 20.45C127.978 19.2167 127.395 17.8 127.395 16.2ZM130.345 36.85C130.345 38.05 130.911 38.65 132.045 38.65C132.511 38.65 132.995 38.35 133.495 37.75C134.028 37.1167 134.395 36.1333 134.595 34.8L135.045 31.7C131.911 33.4667 130.345 35.1833 130.345 36.85ZM169.802 6.2C170.568 5.4 171.502 5 172.602 5C173.702 5 174.635 5.4 175.402 6.2C176.202 6.96666 176.602 7.9 176.602 9C176.602 10.1 176.202 11.0333 175.402 11.8C174.635 12.5667 173.702 12.95 172.602 12.95C171.502 12.95 170.568 12.5667 169.802 11.8C169.035 11.0333 168.652 10.1 168.652 9C168.652 7.9 169.035 6.96666 169.802 6.2ZM167.752 20.85C168.085 20.25 168.718 19.8 169.652 19.5C170.585 19.1667 171.502 19 172.402 19C173.335 19 174.152 19.1167 174.852 19.35C173.552 29.3833 172.902 34.45 172.902 34.55C172.735 35.2167 172.652 35.7833 172.652 36.25C172.652 36.6833 172.685 37.0667 172.752 37.4C172.885 38.2667 173.485 38.7 174.552 38.7C175.652 38.7 176.652 38 177.552 36.6C178.485 35.1667 179.185 33.55 179.652 31.75C179.885 31.8833 180.252 32.2833 180.752 32.95C181.252 33.6167 181.552 34.1167 181.652 34.45C180.985 37.1167 179.852 39.2667 178.252 40.9C176.652 42.5333 174.735 43.35 172.502 43.35C170.268 43.35 168.602 42.8 167.502 41.7C166.435 40.6 165.902 39.1833 165.902 37.45C165.902 37.0833 165.918 36.7 165.952 36.3L167.752 20.85ZM200.474 27.7C203.107 29.6333 204.424 31.9167 204.424 34.55C204.424 37.1833 203.39 39.3 201.324 40.9C199.257 42.5 196.657 43.3 193.524 43.3C191.49 43.3 189.79 42.8 188.424 41.8C187.09 40.7667 186.424 39.5 186.424 38C186.424 36.5 186.924 35.3167 187.924 34.45C188.924 33.55 190.174 33 191.674 32.8C190.974 33.8 190.624 34.7667 190.624 35.7C190.624 36.6 190.94 37.3333 191.574 37.9C192.207 38.4667 193.007 38.75 193.974 38.75C194.94 38.75 195.74 38.4 196.374 37.7C197.007 36.9667 197.324 36.1333 197.324 35.2C197.324 33.6667 196.607 32.3 195.174 31.1C194.307 30.4 193.374 29.75 192.374 29.15C191.374 28.5167 190.84 28.1833 190.774 28.15C190.64 28.05 190.507 27.9667 190.374 27.9C189.774 28.6 188.907 29.5667 187.774 30.8C186.64 32 185.74 32.9667 185.074 33.7C183.207 35.7333 182.157 37.4333 181.924 38.8C181.857 39.0667 181.824 39.5833 181.824 40.35C181.824 41.0833 182.04 41.85 182.474 42.65C182.94 43.45 183.49 44.05 184.124 44.45C184.757 44.85 185.374 45.1667 185.974 45.4C186.607 45.6667 187.14 45.85 187.574 45.95C188.04 46.05 188.274 46.1167 188.274 46.15C188.274 46.3833 187.907 46.65 187.174 46.95C185.807 47.45 184.374 47.7 182.874 47.7C181.407 47.7 179.974 47.1667 178.574 46.1C176.674 44.6333 175.724 42.6833 175.724 40.25C175.724 38.75 176.107 37.2667 176.874 35.8C178.24 33.2 181.44 29.6333 186.474 25.1C185.24 23.8667 184.624 22.55 184.624 21.15C184.624 19.75 185.14 18.5667 186.174 17.6C187.24 16.6333 188.49 16.15 189.924 16.15C191.224 16.15 192.357 16.6667 193.324 17.7C193.957 18.4 194.274 19.2833 194.274 20.35C194.274 21.4167 193.924 22.6167 193.224 23.95C196.79 25.55 199.207 26.8 200.474 27.7ZM189.624 22.05C190.424 21.2167 190.824 20.6167 190.824 20.25C190.824 19.4167 190.457 18.9667 189.724 18.9C188.89 18.9 188.474 19.3667 188.474 20.3C188.474 20.8667 188.857 21.45 189.624 22.05ZM220.956 37.3L222.156 26.25C222.156 25.35 221.923 24.6 221.456 24C220.99 23.4 220.24 23.1 219.206 23.1C218.173 23.1 217.29 23.5167 216.556 24.35C215.856 25.15 215.34 26.2167 215.006 27.55C214.773 29.45 214.423 32.2333 213.956 35.9C213.49 39.5333 213.19 41.9 213.056 43H206.406C208.806 22.5667 210.256 10.0167 210.756 5.35C211.456 5.08333 212.406 4.95 213.606 4.95C216.206 4.95 217.506 5.71666 217.506 7.25V7.55C216.94 12.7833 216.34 17.3833 215.706 21.35C217.473 19.75 219.473 18.95 221.706 18.95C223.94 18.95 225.706 19.5167 227.006 20.65C228.306 21.7833 228.956 23.2167 228.956 24.95C228.956 25.4167 228.856 26.2833 228.656 27.55C227.89 32.55 227.506 35.4833 227.506 36.35C227.506 37.9167 228.023 38.7 229.056 38.7C229.923 38.7 230.84 38.1333 231.806 37C232.806 35.8333 233.606 34.05 234.206 31.65C235.34 32.85 236.023 33.8 236.256 34.5C234.523 40.3 231.456 43.2 227.056 43.2C224.99 43.2 223.456 42.5667 222.456 41.3C221.456 40.0333 220.956 38.7 220.956 37.3ZM240.31 1.45C240.976 1.11667 242.143 0.949999 243.81 0.949999C247.076 0.949999 248.71 1.71667 248.71 3.25C248.71 3.38333 248.693 3.53333 248.66 3.7L242.46 29.9H237.11L240.31 1.45ZM235.61 37C236.41 36.2 237.376 35.8 238.51 35.8C239.643 35.8 240.61 36.2 241.41 37C242.21 37.8 242.61 38.7667 242.61 39.9C242.61 41.0333 242.21 42 241.41 42.8C240.61 43.5667 239.643 43.95 238.51 43.95C237.376 43.95 236.41 43.5667 235.61 42.8C234.843 42 234.46 41.0333 234.46 39.9C234.46 38.7667 234.843 37.8 235.61 37Z" fill="#5F4867"/>
</svg>
