<svg width="38" height="31" viewBox="0 0 38 31" fill="none" xmlns="http://www.w3.org/2000/svg">
<path d="M27.7302 19.1501V19.1201C29.4802 19.4201 31.3602 19.5101 33.2802 19.0401C38.3702 17.5901 35.0902 13.7201 33.2302 12.0701C30.1802 9.08009 17.1902 0.490093 10.9502 3.54009C9.89024 4.27009 9.75024 5.57009 9.85024 6.47009C10.1202 8.62009 11.3902 10.5801 13.2602 12.2901H13.2402C12.3502 11.5801 11.5102 10.8401 10.7102 10.0701C8.77022 8.13009 6.19023 5.3001 9.09023 2.4501C12.5302 -0.229903 17.5802 0.520086 21.1002 1.22009C26.2402 2.27009 30.5002 4.48008 33.7802 7.28008C39.9602 12.5801 40.3402 21.6401 27.7302 19.1601V19.1501Z" fill="#F9CB0F"/>
<path d="M0.119141 19.57L0.169159 19.44H0.559143C0.819143 19.44 1.00916 19.42 1.13916 19.39C1.26916 19.35 1.36916 19.27 1.44916 19.13C1.52916 18.99 1.58915 18.77 1.65915 18.45L3.30914 10.72C3.30914 10.72 3.32913 10.63 3.32913 10.59C3.32913 10.55 3.32913 10.52 3.32913 10.49C3.32913 10.31 3.25915 10.21 3.12915 10.18C2.99915 10.15 2.81915 10.13 2.59915 10.13H2.11914L2.14914 10H5.35913L5.32913 10.13H4.84915C4.52915 10.13 4.29916 10.18 4.16916 10.27C4.03916 10.36 3.93915 10.56 3.87915 10.85L2.03915 19.44H5.32913C5.62913 19.44 5.86915 19.39 6.03915 19.3C6.20915 19.21 6.34914 19.05 6.45914 18.84C6.56914 18.63 6.66916 18.34 6.75916 17.98L7.07913 16.8H7.20914L6.52914 19.58H0.119141V19.57Z" fill="#010101"/>
<path d="M10.7688 19.71C10.3588 19.71 9.97886 19.61 9.63885 19.4C9.29885 19.19 9.02884 18.89 8.83884 18.49C8.63884 18.09 8.54883 17.59 8.54883 17C8.54883 16.59 8.59884 16.16 8.68884 15.73C8.77884 15.29 8.91883 14.87 9.10883 14.46C9.29883 14.05 9.52884 13.68 9.80884 13.35C10.0888 13.02 10.4088 12.76 10.7688 12.56C11.1288 12.36 11.5389 12.27 11.9789 12.27C12.4689 12.27 12.8488 12.4 13.1288 12.67C13.3988 12.93 13.5388 13.3 13.5388 13.78C13.5388 14.29 13.3688 14.73 13.0388 15.1C12.6988 15.47 12.2488 15.76 11.6888 15.97C11.1288 16.18 10.4988 16.28 9.79883 16.28H9.17883C9.17883 16.28 9.17885 16.38 9.16885 16.48C9.16885 16.57 9.14883 16.67 9.14883 16.77C9.14883 16.87 9.14883 16.96 9.14883 17.04C9.14883 17.57 9.21883 18.02 9.35883 18.41C9.49883 18.79 9.69885 19.09 9.94885 19.3C10.1989 19.51 10.4788 19.61 10.7988 19.61C11.3288 19.61 11.7288 19.47 12.0188 19.19C12.3088 18.91 12.5188 18.58 12.6588 18.2C12.6988 18.2 12.7188 18.23 12.7388 18.27C12.7588 18.31 12.7688 18.36 12.7688 18.41C12.7688 18.61 12.6888 18.81 12.5388 19.01C12.3788 19.22 12.1588 19.39 11.8588 19.53C11.5688 19.67 11.2088 19.74 10.7888 19.74L10.7688 19.71ZM9.76883 16.11C10.2288 16.11 10.6588 16.05 11.0588 15.94C11.4488 15.83 11.7888 15.67 12.0788 15.46C12.3688 15.25 12.5888 15 12.7388 14.7C12.8888 14.4 12.9688 14.07 12.9688 13.7C12.9688 13.24 12.8888 12.9 12.7188 12.69C12.5488 12.48 12.2888 12.38 11.9288 12.38C11.5688 12.38 11.2488 12.48 10.9588 12.67C10.6688 12.87 10.4088 13.14 10.1788 13.48C9.94883 13.82 9.75885 14.22 9.59885 14.67C9.43885 15.12 9.30883 15.6 9.20883 16.11H9.76883Z" fill="#010101"/>
<path d="M15.8097 19.71C15.5297 19.71 15.3097 19.66 15.1497 19.55C14.9797 19.44 14.8697 19.3 14.7897 19.11C14.7197 18.93 14.6797 18.71 14.6797 18.47C14.6797 18.38 14.6797 18.27 14.6997 18.15C14.7097 18.03 14.7397 17.87 14.7697 17.68C14.8097 17.49 14.8497 17.26 14.8997 17L15.8497 12.52H14.8297L14.8597 12.44C15.1297 12.44 15.3497 12.41 15.5397 12.38C15.7197 12.35 15.8797 12.28 16.0197 12.17C16.1497 12.06 16.2697 11.89 16.3697 11.66C16.4697 11.43 16.5697 11.13 16.6597 10.74H16.7897L16.4597 12.39H17.9497L17.9097 12.52H16.4197L15.4297 17.15C15.3697 17.44 15.3197 17.68 15.2897 17.87C15.2597 18.05 15.2397 18.2 15.2197 18.33C15.2097 18.45 15.1997 18.56 15.1997 18.64C15.1997 18.92 15.2497 19.13 15.3597 19.28C15.4697 19.43 15.6497 19.51 15.9097 19.51C16.1497 19.51 16.3697 19.48 16.5597 19.43C16.7497 19.38 16.9497 19.31 17.1597 19.22L17.2097 19.33C16.9697 19.45 16.7297 19.55 16.4897 19.62C16.2497 19.69 16.0197 19.72 15.8097 19.72V19.71Z" fill="#010101"/>
<path d="M19.2793 12.8C19.5793 12.7 19.8093 12.53 19.9993 12.3C20.1893 12.07 20.2793 11.8301 20.2793 11.6001C20.2793 11.4801 20.2493 11.3801 20.1893 11.3101C20.1293 11.2401 20.0693 11.1801 19.9893 11.1301C19.9193 11.0801 19.8493 11.0201 19.7993 10.9401C19.7393 10.8601 19.7093 10.7601 19.7093 10.6201C19.7093 10.4501 19.7593 10.3201 19.8493 10.2201C19.9393 10.1201 20.0593 10.0701 20.2093 10.0701C20.3693 10.0701 20.4993 10.1301 20.5993 10.2601C20.6993 10.3901 20.7493 10.5701 20.7493 10.7901C20.7493 11.1101 20.6893 11.4201 20.5793 11.7001C20.4693 11.9901 20.3093 12.2301 20.0993 12.4401C19.8893 12.6501 19.6293 12.8101 19.3293 12.9301L19.2893 12.8H19.2793Z" fill="#010101"/>
<path d="M21.9496 19.71C21.5196 19.71 21.1595 19.63 20.8695 19.48C20.5795 19.32 20.3596 19.12 20.2296 18.87C20.0996 18.62 20.0195 18.36 20.0195 18.09C20.0195 17.95 20.0395 17.84 20.0895 17.76C20.1395 17.68 20.1995 17.62 20.2795 17.59C20.3595 17.55 20.4495 17.54 20.5295 17.54C20.5295 17.6 20.5195 17.66 20.5195 17.72V17.89C20.5195 18.24 20.5696 18.54 20.6696 18.8C20.7696 19.06 20.9296 19.25 21.1396 19.39C21.3496 19.53 21.6195 19.6 21.9395 19.6C22.4895 19.6 22.9095 19.45 23.2095 19.14C23.5095 18.83 23.6696 18.41 23.6696 17.87C23.6696 17.63 23.6195 17.4 23.5195 17.19C23.4195 16.98 23.2695 16.79 23.0795 16.61C22.8795 16.44 22.6295 16.27 22.3195 16.12C21.9895 15.94 21.7095 15.76 21.4895 15.58C21.2695 15.4 21.1095 15.2 20.9895 14.97C20.8795 14.74 20.8195 14.47 20.8195 14.16C20.8195 13.78 20.9095 13.44 21.0795 13.15C21.2495 12.86 21.4995 12.64 21.8095 12.49C22.1195 12.33 22.4795 12.25 22.8695 12.25C23.2595 12.25 23.6195 12.32 23.8795 12.46C24.1395 12.6 24.3295 12.79 24.4595 13.01C24.5795 13.23 24.6495 13.47 24.6495 13.72C24.6495 13.86 24.5996 13.98 24.5096 14.07C24.4196 14.16 24.2895 14.2 24.1295 14.2C24.1295 14.15 24.1396 14.09 24.1396 14.03V13.86C24.1396 13.4 24.0495 13.04 23.8595 12.77C23.6695 12.5 23.3395 12.37 22.8695 12.37C22.3995 12.37 22.0295 12.51 21.7395 12.8C21.4495 13.09 21.2995 13.5 21.2995 14.03C21.2995 14.28 21.3496 14.5 21.4496 14.69C21.5496 14.88 21.6996 15.05 21.8896 15.2C22.0896 15.35 22.3295 15.5 22.6095 15.64C22.9295 15.79 23.1995 15.97 23.4295 16.16C23.6595 16.35 23.8296 16.58 23.9496 16.82C24.0696 17.07 24.1396 17.35 24.1396 17.66C24.1396 18.03 24.0596 18.37 23.8896 18.68C23.7196 18.99 23.4795 19.24 23.1495 19.43C22.8195 19.61 22.4195 19.7 21.9395 19.7L21.9496 19.71Z" fill="#010101"/>
<path d="M6.71094 30.57L6.76096 30.44H7.22095C7.55095 30.44 7.78095 30.4 7.91095 30.32C8.04095 30.24 8.14096 30.05 8.20096 29.76L9.92096 21.64C9.92096 21.64 9.94095 21.57 9.94095 21.54C9.94095 21.51 9.94095 21.48 9.94095 21.45C9.94095 21.33 9.89095 21.24 9.79095 21.2C9.69095 21.16 9.55093 21.13 9.36093 21.13H8.70096L8.73096 21H11.8409C13.0309 21 13.941 21.31 14.571 21.93C15.201 22.55 15.5209 23.46 15.5209 24.65C15.5209 25.29 15.4509 25.9 15.3109 26.49C15.1709 27.08 14.9609 27.62 14.6909 28.12C14.4109 28.62 14.0709 29.05 13.6509 29.41C13.2309 29.77 12.761 30.06 12.231 30.27C11.701 30.48 11.1009 30.58 10.4409 30.58H6.71094V30.57ZM10.321 30.44C10.881 30.44 11.401 30.35 11.881 30.17C12.361 29.99 12.7909 29.72 13.1609 29.38C13.5409 29.04 13.8609 28.62 14.1209 28.15C14.3809 27.68 14.5809 27.14 14.7209 26.55C14.8509 25.96 14.921 25.32 14.921 24.63C14.921 23.83 14.7909 23.18 14.5309 22.66C14.2709 22.14 13.911 21.76 13.451 21.51C12.991 21.26 12.4509 21.14 11.8309 21.14H10.601L8.63095 30.45H10.321V30.44Z" fill="#010101"/>
<path d="M17.76 30.7098C17.43 30.7098 17.2 30.5998 17.07 30.3698C16.94 30.1398 16.87 29.8598 16.87 29.5298C16.87 29.3698 16.87 29.1999 16.9 29.0099C16.92 28.8299 16.94 28.6498 16.98 28.4698C17.02 28.2898 17.05 28.1298 17.07 27.9698L17.82 24.1999C17.82 24.1499 17.84 24.0998 17.84 24.0498C17.84 23.9998 17.84 23.9599 17.84 23.9199C17.84 23.7599 17.78 23.6499 17.66 23.5999C17.54 23.5499 17.32 23.5198 17 23.5198H16.75L16.78 23.3899H18.56L17.49 28.6299C17.47 28.7399 17.45 28.8498 17.43 28.9598C17.41 29.0698 17.39 29.1799 17.38 29.2899C17.38 29.3999 17.37 29.4998 17.37 29.5798C17.37 29.8998 17.42 30.1298 17.52 30.2698C17.62 30.4098 17.75 30.4799 17.92 30.4799C18.12 30.4799 18.3 30.4399 18.46 30.3499C18.62 30.2699 18.79 30.1399 18.97 29.9799L19.05 30.0898C18.86 30.2598 18.67 30.4098 18.46 30.5298C18.25 30.6498 18.02 30.7098 17.76 30.7098ZM18.61 21.5699C18.5 21.5699 18.41 21.5298 18.33 21.4598C18.25 21.3898 18.21 21.2799 18.21 21.1399C18.21 21.0299 18.23 20.9398 18.26 20.8598C18.3 20.7798 18.35 20.7199 18.41 20.6699C18.48 20.6299 18.55 20.5999 18.63 20.5999C18.75 20.5999 18.84 20.6299 18.92 20.6999C19 20.7699 19.03 20.8798 19.03 21.0298C19.03 21.2298 18.99 21.3699 18.9 21.4499C18.81 21.5299 18.71 21.5699 18.6 21.5699H18.61Z" fill="#010101"/>
<path d="M21.641 30.71C21.211 30.71 20.8509 30.63 20.5609 30.48C20.2709 30.32 20.051 30.12 19.921 29.87C19.791 29.62 19.7109 29.36 19.7109 29.09C19.7109 28.95 19.7309 28.84 19.7809 28.75C19.8309 28.67 19.8909 28.61 19.9709 28.58C20.0509 28.55 20.1409 28.53 20.2209 28.53C20.2209 28.59 20.2109 28.65 20.2109 28.71V28.88C20.2109 29.23 20.2609 29.53 20.3609 29.79C20.4609 30.05 20.6209 30.24 20.8309 30.38C21.0409 30.52 21.311 30.59 21.631 30.59C22.181 30.59 22.6009 30.44 22.9009 30.13C23.2009 29.82 23.3609 29.4 23.3609 28.86C23.3609 28.62 23.3109 28.39 23.2109 28.18C23.1109 27.97 22.9609 27.78 22.7709 27.6C22.5709 27.43 22.321 27.26 22.011 27.11C21.681 26.93 21.4009 26.75 21.1809 26.57C20.9609 26.39 20.8009 26.19 20.6809 25.96C20.5709 25.73 20.511 25.46 20.511 25.15C20.511 24.77 20.6009 24.43 20.7709 24.14C20.9409 23.85 21.1909 23.63 21.5009 23.48C21.8109 23.33 22.1709 23.25 22.5609 23.25C22.9509 23.25 23.311 23.32 23.571 23.46C23.831 23.6 24.0209 23.79 24.1509 24.01C24.2709 24.23 24.3409 24.47 24.3409 24.72C24.3409 24.86 24.291 24.98 24.201 25.07C24.111 25.16 23.981 25.2 23.821 25.2C23.821 25.15 23.8309 25.09 23.8309 25.03V24.86C23.8309 24.4 23.7409 24.04 23.5509 23.77C23.3609 23.5 23.0309 23.37 22.5609 23.37C22.0909 23.37 21.7209 23.51 21.4309 23.8C21.1409 24.09 20.9909 24.5 20.9909 25.03C20.9909 25.28 21.041 25.5 21.141 25.69C21.241 25.88 21.3909 26.05 21.5809 26.2C21.7809 26.35 22.0209 26.5 22.3009 26.64C22.6209 26.79 22.8909 26.97 23.1209 27.16C23.3509 27.35 23.521 27.58 23.641 27.82C23.761 28.07 23.8309 28.35 23.8309 28.66C23.8309 29.03 23.7509 29.37 23.5809 29.68C23.4109 29.99 23.1709 30.24 22.8409 30.42C22.5109 30.6 22.111 30.69 21.631 30.69L21.641 30.71Z" fill="#010101"/>
<path d="M30.4016 30.7099C30.1016 30.7099 29.8617 30.5999 29.7017 30.3899C29.5417 30.1799 29.4616 29.8599 29.4616 29.4499C29.4616 29.2399 29.4816 28.9899 29.5316 28.7199C29.5716 28.4499 29.6317 28.1499 29.7017 27.8299L30.0616 26.2099C30.1016 26.0399 30.1517 25.8599 30.1917 25.6699C30.2317 25.4799 30.2617 25.2999 30.2917 25.1099C30.3217 24.9299 30.3316 24.7499 30.3316 24.5799C30.3316 24.3799 30.3016 24.2099 30.2516 24.0499C30.2016 23.8899 30.1016 23.7699 29.9716 23.6699C29.8416 23.5699 29.6417 23.5199 29.3917 23.5199C29.0817 23.5199 28.7816 23.6099 28.5016 23.7999C28.2216 23.9899 27.9717 24.2199 27.7617 24.4899C27.5417 24.7599 27.3616 25.0299 27.2216 25.2999C27.0816 25.5699 27.0016 25.7799 26.9716 25.9299L25.9916 30.5699H25.4316L27.3116 21.3799C27.3416 21.2799 27.3516 21.1899 27.3616 21.1099C27.3616 21.0299 27.3716 20.9599 27.3716 20.9099C27.3716 20.7399 27.3017 20.6299 27.1717 20.5799C27.0417 20.5299 26.8116 20.5099 26.4916 20.5099H26.2416L26.2816 20.3799H28.1017L27.4417 23.5599C27.4117 23.6899 27.3817 23.8399 27.3517 23.9899C27.3217 24.1399 27.2816 24.2899 27.2516 24.4399C27.2116 24.5899 27.1816 24.7299 27.1516 24.8599C27.1216 24.9899 27.0916 25.1099 27.0616 25.2199H27.0916C27.3416 24.7799 27.5917 24.4199 27.8517 24.1299C28.1117 23.8399 28.3817 23.6299 28.6617 23.4899C28.9417 23.3499 29.2317 23.2799 29.5417 23.2799C29.8717 23.2799 30.1317 23.3399 30.3217 23.4699C30.5117 23.5999 30.6516 23.7699 30.7416 23.9899C30.8216 24.1999 30.8716 24.4399 30.8716 24.6999C30.8716 24.9099 30.8416 25.1399 30.7816 25.3999C30.7216 25.6599 30.6717 25.9099 30.6317 26.1299L30.2416 27.8599C30.1716 28.1899 30.1116 28.4999 30.0616 28.7999C30.0116 29.0899 29.9916 29.3499 29.9916 29.5799C29.9916 29.8699 30.0417 30.0899 30.1317 30.2399C30.2217 30.3999 30.3816 30.4699 30.6116 30.4699C30.7616 30.4699 30.9216 30.4299 31.0816 30.3399C31.2416 30.2599 31.4016 30.1399 31.5616 29.9799L31.6516 30.0699C31.5316 30.1799 31.4016 30.2799 31.2716 30.3699C31.1416 30.4599 31.0116 30.5399 30.8716 30.5899C30.7316 30.6399 30.5717 30.6699 30.3917 30.6699L30.4016 30.7099Z" fill="#010101"/>
</svg>
