<svg width="130" height="154" viewBox="0 0 130 154" fill="none" xmlns="http://www.w3.org/2000/svg">
<path d="M129.994 34.9709C130.001 34.7878 129.973 34.6116 129.919 34.4421C129.729 33.7912 129.2 33.3031 128.535 33.1607L120.168 31.3641L115.371 28.7404V1.846C115.371 1.26295 115.092 0.713816 114.624 0.36127C114.149 0.0155095 113.539 -0.0929637 112.975 0.0833008L80.9268 9.89327L68.5971 3.14762C63.82 0.483176 57.8147 1.60189 54.3268 5.81884L39.9954 22.4288L24.0016 27.3236C23.2212 27.5609 22.6919 28.2795 22.6919 29.093V42.4895L0.447853 68.2662C0.162858 68.5984 0 69.0255 0 69.473L0.00678736 145.376H0.0135731C0.0203583 148.197 1.89316 150.671 4.60744 151.444L12.4178 153.654C13.076 153.878 13.7749 154 14.4739 154C15.1253 154 15.7632 153.905 16.3807 153.708L123.187 121.01C127.245 119.783 130.013 116.041 130 111.804L129.994 34.9709ZM124.443 36.0692L121.654 38.8692V35.4659L124.443 36.0692ZM117.949 34.3743V42.5979L115.371 45.181V32.9574L117.949 34.3743ZM57.1493 8.1984L57.2103 8.1306H57.2036C59.565 5.30353 63.6093 4.57129 66.812 6.39503L75.9794 11.4051L46.6305 20.3948L57.1493 8.1984ZM111.673 4.34751V48.8961L68.571 92.1969L26.3915 75.6411V30.4625L111.673 4.34751ZM22.6844 74.1903L10.5856 69.4446C10.4906 69.4039 10.3888 69.3768 10.2938 69.3565L5.30628 68.3056L22.6916 48.1504L22.6844 74.1903ZM3.71136 145.377L3.70458 71.7571L8.06098 72.6723V147.559C8.06098 147.904 8.08812 148.257 8.14241 148.596L5.61139 147.871V147.877C4.49175 147.552 3.71831 146.536 3.71136 145.377ZM122.101 117.472L15.2946 150.17C14.4668 150.428 13.5643 150.272 12.8722 149.757C12.1733 149.241 11.7593 148.428 11.7593 147.56V73.8799L68.3519 96.083C68.569 96.1712 68.7929 96.2119 69.0304 96.2119C69.519 96.2119 69.994 96.0153 70.3401 95.6695L126.295 39.4526V111.805C126.309 114.415 124.598 116.719 122.101 117.472ZM41.0859 42.8286C40.7874 41.8523 41.337 40.815 42.3141 40.5168L94.6594 24.4898C95.6297 24.1983 96.6611 24.7475 96.9597 25.7169C97.2583 26.6864 96.7154 27.7168 95.7451 28.022L43.3998 44.0489C43.2234 44.1031 43.0402 44.1303 42.857 44.1303C42.0427 44.1303 41.3234 43.6015 41.0859 42.8286ZM41.0859 56.5911C40.7874 55.6149 41.337 54.5845 42.3141 54.2861L94.6594 38.2524C95.6297 37.9609 96.6611 38.51 96.9597 39.4795C97.2583 40.4558 96.7154 41.4862 95.7451 41.7913L43.3998 57.8115C43.2234 57.8657 43.0402 57.8928 42.857 57.8928C42.0427 57.8928 41.3234 57.364 41.0859 56.5911ZM41.0859 70.3537V70.3605C40.7874 69.3842 41.337 68.3469 42.3141 68.0487L94.6594 52.015C95.6297 51.7234 96.6611 52.2726 96.9597 53.2489C97.2583 54.2183 96.7154 55.2488 95.7451 55.5539L43.3998 71.5741C43.2234 71.6283 43.0402 71.6554 42.857 71.6554C42.0427 71.6554 41.3234 71.1266 41.0859 70.3537Z" fill="black"/>
</svg>
