<svg width="294" height="124" viewBox="0 0 294 124" fill="none" xmlns="http://www.w3.org/2000/svg">
<g filter="url(#filter0_d_3_31)">
<path d="M7 44.2389V9.8005C13.3112 10.1264 18.5136 9.94211 23.5261 9.01959C28.9856 8.01477 34.0778 6.16049 40.0244 3.32132C45.8525 6.00677 50.8507 7.86509 56.2674 8.91147C61.2787 9.87953 66.529 10.1302 73 9.80138V44.2579C72.8163 51.4566 72.1382 56.3609 70.9321 60.0209C69.7569 63.5869 68.0503 66.0633 65.5913 68.3594C63.0263 70.7544 59.6746 72.9348 55.0492 75.9222L54.9679 75.9747C50.8338 78.6447 45.854 81.8609 39.9678 86.2625C34.3415 82.2156 29.5226 79.2964 25.4868 76.8515L25.4501 76.8293C20.9134 74.081 17.5884 72.0525 14.9973 69.7052C10.21 65.3684 7.59007 59.6412 7 44.2389Z" stroke="#B60808" stroke-width="6" shape-rendering="crispEdges"/>
</g>
<path d="M35.9531 34.1157L39.9595 39.4815L43.966 34.1157C45.7038 31.7882 47.6654 30.6276 49.2859 30.3232C50.7345 30.051 52.4212 30.3493 54.2496 32.0679C56.1026 33.8094 56.5873 35.5854 56.3236 37.6853C56.0209 40.0961 54.6719 43.0753 52.2916 46.4386C50.3665 49.1586 47.3061 52.2669 44.2592 54.9241C42.5893 56.3804 41.1004 57.5476 39.9595 58.3753C38.8187 57.5476 37.3297 56.3804 35.6599 54.9241C32.613 52.2669 29.5525 49.1586 27.6275 46.4386C25.2472 43.0753 23.8982 40.0961 23.5955 37.6853C23.3318 35.5854 23.8165 33.8094 25.6694 32.0679C27.4979 30.3493 29.1846 30.051 30.6332 30.3232C32.2537 30.6276 34.2153 31.7882 35.9531 34.1157Z" fill="#B60808" stroke="#B60808" stroke-width="10"/>
<path d="M84.4961 84.9951C84.6263 85.0602 84.9274 85.1986 85.3994 85.4102C85.8714 85.6055 86.5143 85.7926 87.3281 85.9717C88.1419 86.1507 89.029 86.2402 89.9893 86.2402C91.9912 86.2402 93.7653 85.7682 95.3115 84.8242C96.874 83.8802 97.6553 82.57 97.6553 80.8936C97.6553 79.8193 97.3216 78.9242 96.6543 78.208C95.987 77.4756 95.1569 76.8815 94.1641 76.4258C93.1875 75.9701 91.8366 75.4248 90.1113 74.79C87.849 73.9925 86.0179 73.2438 84.6182 72.5439C83.2347 71.8441 82.0465 70.835 81.0537 69.5166C80.0771 68.1982 79.5889 66.5055 79.5889 64.4385C79.5889 61.1344 80.7119 58.6523 82.958 56.9922C85.2204 55.332 88.0524 54.502 91.4541 54.502C92.8538 54.502 94.335 54.6566 95.8975 54.9658C97.46 55.2588 98.7946 55.568 99.9014 55.8936C101.008 56.2028 101.708 56.4062 102.001 56.5039L101.757 65H98.5098L96.8008 59.6533C96.6706 59.6208 96.3532 59.5312 95.8486 59.3848C95.3441 59.222 94.693 59.0755 93.8955 58.9453C93.098 58.8151 92.3005 58.75 91.5029 58.75C89.3708 58.75 87.7269 59.2301 86.5713 60.1904C85.4157 61.1344 84.8379 62.2738 84.8379 63.6084C84.8379 64.6826 85.1715 65.5859 85.8389 66.3184C86.5062 67.0345 87.3363 67.6286 88.3291 68.1006C89.3382 68.5726 90.7461 69.126 92.5527 69.7607C94.7174 70.5257 96.4915 71.25 97.875 71.9336C99.2585 72.6172 100.43 73.5856 101.391 74.8389C102.367 76.0758 102.855 77.6465 102.855 79.5508C102.855 81.9434 102.27 83.9697 101.098 85.6299C99.9258 87.2738 98.347 88.4945 96.3613 89.292C94.3919 90.0895 92.2028 90.4883 89.7939 90.4883C88.2314 90.4883 86.6934 90.3418 85.1797 90.0488C83.666 89.7559 82.4046 89.4548 81.3955 89.1455C80.4027 88.82 79.7679 88.6084 79.4912 88.5107V79.7461H83.4951L84.4961 84.9951ZM109.594 65C109.854 64.9023 110.505 64.6989 111.547 64.3896C112.605 64.0641 113.85 63.7549 115.282 63.4619C116.715 63.1527 118.065 62.998 119.335 62.998C122.362 62.998 124.657 63.6003 126.22 64.8047C127.799 66.0091 128.588 67.9948 128.588 70.7617V85.9961L132.592 86.9971V89.7559L124.828 90L123.778 86.5088C122.704 87.583 121.459 88.5189 120.043 89.3164C118.643 90.0977 117.154 90.4883 115.575 90.4883C113.215 90.4883 111.376 89.8372 110.058 88.5352C108.739 87.2168 108.08 85.3695 108.08 82.9932C108.08 80.2262 109.073 78.2487 111.059 77.0605C113.044 75.8561 115.884 75.2539 119.579 75.2539H123.583V71.25C123.583 69.7852 123.176 68.6702 122.362 67.9053C121.549 67.1403 120.368 66.7578 118.822 66.7578C117.927 66.7578 117.105 66.8148 116.356 66.9287C115.608 67.0426 115.014 67.1566 114.574 67.2705C114.151 67.3844 113.891 67.4577 113.793 67.4902L113.085 71.25H109.838L109.594 65ZM120.092 78.501C117.618 78.501 115.844 78.8346 114.77 79.502C113.712 80.1693 113.183 81.2516 113.183 82.749C113.183 83.8883 113.508 84.7998 114.159 85.4834C114.81 86.167 115.705 86.5088 116.845 86.5088C117.951 86.5088 119.001 86.2077 119.994 85.6055C120.987 85.0033 121.833 84.3522 122.533 83.6523C123.233 82.9525 123.583 82.57 123.583 82.5049V78.501H120.092ZM140.844 60.752C140.844 57.7246 141.641 55.3483 143.236 53.623C144.848 51.8815 147.134 51.0107 150.097 51.0107C151.496 51.0107 152.758 51.141 153.881 51.4014C155.004 51.6618 155.907 51.9466 156.591 52.2559C157.274 52.5488 157.616 52.7116 157.616 52.7441V58.9941H154.101L153.344 54.9902C153.214 54.9577 152.864 54.9089 152.294 54.8438C151.741 54.7786 151.098 54.7461 150.365 54.7461C148.705 54.7461 147.533 55.1774 146.85 56.04C146.182 56.8864 145.849 58.1234 145.849 59.751V63.7549H152.465L152.294 67.4902H145.849V85.9961L150.854 87.2412V90H136.596V87.2412L140.844 85.9961V67.4902H136.352V64.2432L140.844 63.7549V60.752ZM162.108 77.5C162.108 80.2344 162.776 82.4235 164.11 84.0674C165.445 85.695 167.195 86.5088 169.359 86.5088C170.824 86.5088 172.183 86.3053 173.437 85.8984C174.69 85.4915 175.723 85.0521 176.537 84.5801C177.351 84.0918 177.758 83.8151 177.758 83.75L179.516 86.3379C179.516 86.403 178.97 86.8099 177.88 87.5586C176.806 88.291 175.471 88.9665 173.876 89.585C172.297 90.1872 170.621 90.4883 168.847 90.4883C164.908 90.4883 161.921 89.3001 159.887 86.9238C157.868 84.5475 156.859 81.2435 156.859 77.0117C156.859 74.375 157.372 71.9906 158.397 69.8584C159.439 67.7262 160.888 66.0498 162.743 64.8291C164.615 63.6084 166.739 62.998 169.115 62.998C176.114 62.998 179.613 66.9124 179.613 74.7412C179.613 75.2783 179.581 75.8154 179.516 76.3525C179.451 76.8896 179.402 77.2396 179.369 77.4023L162.108 77.5ZM174.315 73.7402C174.315 71.7057 173.876 70.0618 172.997 68.8086C172.134 67.5391 170.751 66.9043 168.847 66.9043C166.91 66.9043 165.372 67.5553 164.232 68.8574C163.109 70.1595 162.466 71.7871 162.304 73.7402H174.315ZM188.354 58.9941L184.105 57.9932V55.2588L193.603 54.9902H199.853C204.784 54.9902 208.642 56.4714 211.425 59.4336C214.208 62.3796 215.6 66.5706 215.6 72.0068C215.6 75.6364 214.924 78.8102 213.573 81.5283C212.239 84.2464 210.318 86.3379 207.812 87.8027C205.305 89.2676 202.408 90 199.12 90H184.105V86.9971L188.354 85.9961V58.9941ZM199.364 85.9961C202.636 85.9961 205.199 84.8568 207.055 82.5781C208.926 80.2995 209.862 76.8571 209.862 72.251C209.862 67.7588 208.959 64.4303 207.152 62.2656C205.362 60.0846 202.847 58.9941 199.608 58.9941H193.603V85.9961H199.364ZM222.143 65C222.403 64.9023 223.054 64.6989 224.096 64.3896C225.154 64.0641 226.399 63.7549 227.831 63.4619C229.263 63.1527 230.614 62.998 231.884 62.998C234.911 62.998 237.206 63.6003 238.769 64.8047C240.347 66.0091 241.137 67.9948 241.137 70.7617V85.9961L245.141 86.9971V89.7559L237.377 90L236.327 86.5088C235.253 87.583 234.008 88.5189 232.592 89.3164C231.192 90.0977 229.703 90.4883 228.124 90.4883C225.764 90.4883 223.925 89.8372 222.606 88.5352C221.288 87.2168 220.629 85.3695 220.629 82.9932C220.629 80.2262 221.622 78.2487 223.607 77.0605C225.593 75.8561 228.433 75.2539 232.128 75.2539H236.132V71.25C236.132 69.7852 235.725 68.6702 234.911 67.9053C234.097 67.1403 232.917 66.7578 231.371 66.7578C230.476 66.7578 229.654 66.8148 228.905 66.9287C228.157 67.0426 227.562 67.1566 227.123 67.2705C226.7 67.3844 226.439 67.4577 226.342 67.4902L225.634 71.25H222.387L222.143 65ZM232.641 78.501C230.167 78.501 228.393 78.8346 227.318 79.502C226.26 80.1693 225.731 81.2516 225.731 82.749C225.731 83.8883 226.057 84.7998 226.708 85.4834C227.359 86.167 228.254 86.5088 229.394 86.5088C230.5 86.5088 231.55 86.2077 232.543 85.6055C233.536 85.0033 234.382 84.3522 235.082 83.6523C235.782 82.9525 236.132 82.57 236.132 82.5049V78.501H232.641ZM264.916 67.4902H257.665V83.5547C257.665 85.5892 258.495 86.6064 260.155 86.6064C261.229 86.6064 262.532 86.1914 264.062 85.3613L265.404 87.998C263.142 89.6582 260.806 90.4883 258.397 90.4883C256.705 90.4883 255.321 89.9349 254.247 88.8281C253.189 87.7051 252.66 85.8496 252.66 83.2617V67.4902H247.655V64.2432L252.66 63.7549V57.4561L257.665 56.4551V63.7549H264.916V67.4902ZM273.632 77.5C273.632 80.2344 274.299 82.4235 275.634 84.0674C276.968 85.695 278.718 86.5088 280.883 86.5088C282.348 86.5088 283.707 86.3053 284.96 85.8984C286.213 85.4915 287.247 85.0521 288.061 84.5801C288.874 84.0918 289.281 83.8151 289.281 83.75L291.039 86.3379C291.039 86.403 290.494 86.8099 289.403 87.5586C288.329 88.291 286.994 88.9665 285.399 89.585C283.821 90.1872 282.144 90.4883 280.37 90.4883C276.431 90.4883 273.445 89.3001 271.41 86.9238C269.392 84.5475 268.383 81.2435 268.383 77.0117C268.383 74.375 268.896 71.9906 269.921 69.8584C270.963 67.7262 272.411 66.0498 274.267 64.8291C276.138 63.6084 278.262 62.998 280.639 62.998C287.637 62.998 291.137 66.9124 291.137 74.7412C291.137 75.2783 291.104 75.8154 291.039 76.3525C290.974 76.8896 290.925 77.2396 290.893 77.4023L273.632 77.5ZM285.839 73.7402C285.839 71.7057 285.399 70.0618 284.521 68.8086C283.658 67.5391 282.274 66.9043 280.37 66.9043C278.433 66.9043 276.895 67.5553 275.756 68.8574C274.633 70.1595 273.99 71.7871 273.827 73.7402H285.839Z" fill="#B60808"/>
<defs>
<filter id="filter0_d_3_31" x="0" y="0" width="80" height="98" filterUnits="userSpaceOnUse" color-interpolation-filters="sRGB">
<feFlood flood-opacity="0" result="BackgroundImageFix"/>
<feColorMatrix in="SourceAlpha" type="matrix" values="0 0 0 0 0 0 0 0 0 0 0 0 0 0 0 0 0 0 127 0" result="hardAlpha"/>
<feOffset dy="4"/>
<feGaussianBlur stdDeviation="2"/>
<feComposite in2="hardAlpha" operator="out"/>
<feColorMatrix type="matrix" values="0 0 0 0 0 0 0 0 0 0 0 0 0 0 0 0 0 0 0.25 0"/>
<feBlend mode="normal" in2="BackgroundImageFix" result="effect1_dropShadow_3_31"/>
<feBlend mode="normal" in="SourceGraphic" in2="effect1_dropShadow_3_31" result="shape"/>
</filter>
</defs>
</svg>
