<svg width="343" height="114" viewBox="0 0 343 114" fill="none" xmlns="http://www.w3.org/2000/svg">
<g filter="url(#filter0_d_3_31)">
<path d="M7 44.2389V9.8005C13.3112 10.1264 18.5136 9.94211 23.5261 9.01959C28.9856 8.01477 34.0778 6.16049 40.0244 3.32132C45.8525 6.00677 50.8507 7.86509 56.2674 8.91147C61.2787 9.87953 66.529 10.1302 73 9.80138V44.2579C72.8163 51.4566 72.1382 56.3609 70.9321 60.0209C69.7569 63.5869 68.0503 66.0633 65.5913 68.3594C63.0263 70.7544 59.6746 72.9348 55.0492 75.9222L54.9679 75.9747C50.8338 78.6447 45.854 81.8609 39.9678 86.2625C34.3415 82.2156 29.5226 79.2964 25.4868 76.8515L25.4501 76.8293C20.9134 74.081 17.5884 72.0525 14.9973 69.7052C10.21 65.3684 7.59007 59.6412 7 44.2389Z" stroke="#B60808" stroke-width="6" shape-rendering="crispEdges"/>
</g>
<path d="M35.9531 34.1157L39.9595 39.4815L43.966 34.1157C45.7038 31.7882 47.6654 30.6276 49.2859 30.3232C50.7345 30.051 52.4212 30.3493 54.2496 32.0679C56.1026 33.8094 56.5873 35.5854 56.3236 37.6853C56.0209 40.0961 54.6719 43.0753 52.2916 46.4386C50.3665 49.1586 47.3061 52.2669 44.2592 54.9241C42.5893 56.3804 41.1004 57.5476 39.9595 58.3753C38.8187 57.5476 37.3297 56.3804 35.6599 54.9241C32.613 52.2669 29.5525 49.1586 27.6275 46.4386C25.2472 43.0753 23.8982 40.0961 23.5955 37.6853C23.3318 35.5854 23.8165 33.8094 25.6694 32.0679C27.4979 30.3493 29.1846 30.051 30.6332 30.3232C32.2537 30.6276 34.2153 31.7882 35.9531 34.1157Z" fill="#B60808" stroke="#B60808" stroke-width="10"/>
<path d="M85.4941 48.9941L81.2461 47.9932V45.2588L90.7432 44.9902H96.9932C101.925 44.9902 105.782 46.4714 108.565 49.4336C111.349 52.3796 112.74 56.5706 112.74 62.0068C112.74 65.6364 112.065 68.8102 110.714 71.5283C109.379 74.2464 107.459 76.3379 104.952 77.8027C102.446 79.2676 99.5485 80 96.2607 80H81.2461V76.9971L85.4941 75.9961V48.9941ZM96.5049 75.9961C99.7764 75.9961 102.34 74.8568 104.195 72.5781C106.067 70.2995 107.003 66.8571 107.003 62.251C107.003 57.7588 106.1 54.4303 104.293 52.2656C102.503 50.0846 99.988 48.9941 96.749 48.9941H90.7432V75.9961H96.5049ZM119.283 55C119.544 54.9023 120.195 54.6989 121.236 54.3896C122.294 54.0641 123.539 53.7549 124.972 53.4619C126.404 53.1527 127.755 52.998 129.024 52.998C132.052 52.998 134.347 53.6003 135.909 54.8047C137.488 56.0091 138.277 57.9948 138.277 60.7617V75.9961L142.281 76.9971V79.7559L134.518 80L133.468 76.5088C132.394 77.583 131.148 78.5189 129.732 79.3164C128.333 80.0977 126.843 80.4883 125.265 80.4883C122.905 80.4883 121.065 79.8372 119.747 78.5352C118.429 77.2168 117.77 75.3695 117.77 72.9932C117.77 70.2262 118.762 68.2487 120.748 67.0605C122.734 65.8561 125.574 65.2539 129.269 65.2539H133.272V61.25C133.272 59.7852 132.866 58.6702 132.052 57.9053C131.238 57.1403 130.058 56.7578 128.512 56.7578C127.617 56.7578 126.795 56.8148 126.046 56.9287C125.297 57.0426 124.703 57.1566 124.264 57.2705C123.84 57.3844 123.58 57.4577 123.482 57.4902L122.774 61.25H119.527L119.283 55ZM129.781 68.501C127.307 68.501 125.533 68.8346 124.459 69.502C123.401 70.1693 122.872 71.2516 122.872 72.749C122.872 73.8883 123.198 74.7998 123.849 75.4834C124.5 76.167 125.395 76.5088 126.534 76.5088C127.641 76.5088 128.691 76.2077 129.684 75.6055C130.676 75.0033 131.523 74.3522 132.223 73.6523C132.923 72.9525 133.272 72.57 133.272 72.5049V68.501H129.781ZM162.057 57.4902H154.806V73.5547C154.806 75.5892 155.636 76.6064 157.296 76.6064C158.37 76.6064 159.672 76.1914 161.202 75.3613L162.545 77.998C160.283 79.6582 157.947 80.4883 155.538 80.4883C153.845 80.4883 152.462 79.9349 151.388 78.8281C150.33 77.7051 149.801 75.8496 149.801 73.2617V57.4902H144.796V54.2432L149.801 53.7549V47.4561L154.806 46.4551V53.7549H162.057V57.4902ZM170.772 67.5C170.772 70.2344 171.44 72.4235 172.774 74.0674C174.109 75.695 175.859 76.5088 178.023 76.5088C179.488 76.5088 180.847 76.3053 182.101 75.8984C183.354 75.4915 184.387 75.0521 185.201 74.5801C186.015 74.0918 186.422 73.8151 186.422 73.75L188.18 76.3379C188.18 76.403 187.634 76.8099 186.544 77.5586C185.47 78.291 184.135 78.9665 182.54 79.585C180.961 80.1872 179.285 80.4883 177.511 80.4883C173.572 80.4883 170.585 79.3001 168.551 76.9238C166.533 74.5475 165.523 71.2435 165.523 67.0117C165.523 64.375 166.036 61.9906 167.062 59.8584C168.103 57.7262 169.552 56.0498 171.407 54.8291C173.279 53.6084 175.403 52.998 177.779 52.998C184.778 52.998 188.277 56.9124 188.277 64.7412C188.277 65.2783 188.245 65.8154 188.18 66.3525C188.115 66.8896 188.066 67.2396 188.033 67.4023L170.772 67.5ZM182.979 63.7402C182.979 61.7057 182.54 60.0618 181.661 58.8086C180.799 57.5391 179.415 56.9043 177.511 56.9043C175.574 56.9043 174.036 57.5553 172.896 58.8574C171.773 60.1595 171.131 61.7871 170.968 63.7402H182.979ZM222.262 77.5098C222.262 77.5749 221.635 77.8678 220.382 78.3887C219.145 78.8932 217.574 79.3734 215.67 79.8291C213.766 80.2686 211.715 80.4883 209.518 80.4883C204.456 80.4883 200.525 79.0072 197.726 76.0449C194.926 73.0827 193.526 68.8184 193.526 63.252C193.526 59.4596 194.21 56.1556 195.577 53.3398C196.944 50.5078 198.881 48.3268 201.388 46.7969C203.91 45.2669 206.873 44.502 210.274 44.502C211.902 44.502 213.546 44.6891 215.206 45.0635C216.882 45.4215 218.355 45.8285 219.625 46.2842C220.895 46.7236 221.529 46.9596 221.529 46.9922L221.285 55.2441H218.014L216.524 49.751C216.362 49.6859 215.971 49.5801 215.353 49.4336C214.734 49.2708 213.92 49.1162 212.911 48.9697C211.918 48.8232 210.868 48.75 209.762 48.75C206.393 48.75 203.797 49.9788 201.974 52.4365C200.167 54.8779 199.264 58.4017 199.264 63.0078C199.264 67.3698 200.257 70.6657 202.242 72.8955C204.228 75.1253 206.905 76.2402 210.274 76.2402C211.3 76.2402 212.325 76.1507 213.351 75.9717C214.392 75.7926 215.263 75.6055 215.963 75.4102C216.663 75.1986 217.102 75.0602 217.281 74.9951V66.792L213.033 65.791V63.0566L226.021 62.7881V65.791L222.262 66.792V77.5098ZM259.273 79.7559L251.021 80L250.533 76.5088C249.54 77.404 248.189 78.291 246.48 79.1699C244.771 80.0488 243.038 80.4883 241.28 80.4883C238.611 80.4883 236.609 79.707 235.274 78.1445C233.94 76.582 233.272 74.3848 233.272 71.5527V57.4902L229.024 56.4893V53.7549L238.277 53.5107V71.04C238.277 72.8141 238.627 74.1243 239.327 74.9707C240.027 75.8171 241.174 76.2402 242.77 76.2402C244.039 76.2402 245.203 75.9554 246.261 75.3857C247.335 74.7998 248.23 74.1569 248.946 73.457C249.662 72.7572 250.021 72.3747 250.021 72.3096V57.4902L245.772 56.4893V53.7549L255.025 53.5107V75.9961L259.273 76.9971V79.7559ZM264.303 55C264.563 54.9023 265.214 54.6989 266.256 54.3896C267.314 54.0641 268.559 53.7549 269.991 53.4619C271.424 53.1527 272.774 52.998 274.044 52.998C277.071 52.998 279.366 53.6003 280.929 54.8047C282.507 56.0091 283.297 57.9948 283.297 60.7617V75.9961L287.301 76.9971V79.7559L279.537 80L278.487 76.5088C277.413 77.583 276.168 78.5189 274.752 79.3164C273.352 80.0977 271.863 80.4883 270.284 80.4883C267.924 80.4883 266.085 79.8372 264.767 78.5352C263.448 77.2168 262.789 75.3695 262.789 72.9932C262.789 70.2262 263.782 68.2487 265.768 67.0605C267.753 65.8561 270.593 65.2539 274.288 65.2539H278.292V61.25C278.292 59.7852 277.885 58.6702 277.071 57.9053C276.257 57.1403 275.077 56.7578 273.531 56.7578C272.636 56.7578 271.814 56.8148 271.065 56.9287C270.317 57.0426 269.723 57.1566 269.283 57.2705C268.86 57.3844 268.6 57.4577 268.502 57.4902L267.794 61.25H264.547L264.303 55ZM274.801 68.501C272.327 68.501 270.553 68.8346 269.479 69.502C268.421 70.1693 267.892 71.2516 267.892 72.749C267.892 73.8883 268.217 74.7998 268.868 75.4834C269.519 76.167 270.414 76.5088 271.554 76.5088C272.66 76.5088 273.71 76.2077 274.703 75.6055C275.696 75.0033 276.542 74.3522 277.242 73.6523C277.942 72.9525 278.292 72.57 278.292 72.5049V68.501H274.801ZM299.508 57.1484C300.452 56.123 301.567 55.179 302.853 54.3164C304.155 53.4375 305.562 52.998 307.076 52.998C307.809 52.998 308.5 53.055 309.151 53.1689C309.819 53.2829 310.364 53.4049 310.787 53.5352C311.21 53.6491 311.471 53.7223 311.568 53.7549L311.324 61.0059H308.053L307.32 57.2461C305.66 57.2461 304.228 57.6449 303.023 58.4424C301.819 59.2399 300.834 60.1432 300.069 61.1523V75.9961L305.074 77.2412V80H290.816V77.2412L295.064 75.9961V57.4902L290.816 56.4893V53.7549L299.068 53.5107L299.508 57.1484ZM341.549 79.7559L333.053 80L332.662 77.1436C330.432 79.3734 327.812 80.4883 324.801 80.4883C321.301 80.4883 318.673 79.3327 316.915 77.0215C315.174 74.7103 314.303 71.5365 314.303 67.5C314.303 63.0729 315.418 59.5492 317.647 56.9287C319.894 54.3083 323.198 52.998 327.56 52.998C329.187 52.998 330.766 53.2666 332.296 53.8037V45.5029L328.048 44.502V41.7432L337.301 41.499V75.9961L341.549 76.9971V79.7559ZM332.296 58.0029C332.198 57.9378 331.946 57.832 331.539 57.6855C331.148 57.5228 330.562 57.3682 329.781 57.2217C329 57.0752 328.089 57.002 327.047 57.002C322.05 57.002 319.552 60.3385 319.552 67.0117C319.552 69.9414 320.056 72.2607 321.065 73.9697C322.091 75.6624 323.67 76.5088 325.802 76.5088C327.071 76.5088 328.186 76.2321 329.146 75.6787C330.123 75.1253 330.888 74.5231 331.441 73.8721C332.011 73.221 332.296 72.8467 332.296 72.749V58.0029Z" fill="#B60808"/>
<defs>
<filter id="filter0_d_3_31" x="0" y="0" width="80" height="98" filterUnits="userSpaceOnUse" color-interpolation-filters="sRGB">
<feFlood flood-opacity="0" result="BackgroundImageFix"/>
<feColorMatrix in="SourceAlpha" type="matrix" values="0 0 0 0 0 0 0 0 0 0 0 0 0 0 0 0 0 0 127 0" result="hardAlpha"/>
<feOffset dy="4"/>
<feGaussianBlur stdDeviation="2"/>
<feComposite in2="hardAlpha" operator="out"/>
<feColorMatrix type="matrix" values="0 0 0 0 0 0 0 0 0 0 0 0 0 0 0 0 0 0 0.25 0"/>
<feBlend mode="normal" in2="BackgroundImageFix" result="effect1_dropShadow_3_31"/>
<feBlend mode="normal" in="SourceGraphic" in2="effect1_dropShadow_3_31" result="shape"/>
</filter>
</defs>
</svg>
