<svg width="179" height="443" viewBox="0 0 179 443" fill="none" xmlns="http://www.w3.org/2000/svg">
<rect x="59.5304" y="210" width="21.7511" height="137.418" rx="10.8755" transform="rotate(25.6711 59.5304 210)" fill="#B60808"/>
<rect x="102.425" y="241.545" width="21" height="94" rx="10.5" transform="rotate(-126.274 102.425 241.545)" fill="#B60808"/>
<rect x="121" y="157.196" width="21" height="57.196" rx="10.5" transform="rotate(-46.3537 121 157.196)" fill="#B60808"/>
<circle cx="86.5254" cy="170.525" r="34.5253" fill="#B60808"/>
<rect x="54.0001" y="209" width="69.0506" height="130.534" rx="15.765" fill="#B60808"/>
<rect x="54.0001" y="312" width="33" height="131" rx="15.765" fill="#B60808"/>
<rect x="90.0001" y="312" width="33" height="131" rx="15.765" fill="#B60808"/>
<path d="M83.8175 97.571C83.7591 96.9294 83.5987 95.5879 83.3363 93.5464C83.103 91.505 82.9863 89.9156 82.9863 88.7782C82.9863 87.1742 83.5696 85.6577 84.7361 84.2287C85.9026 82.7997 87.7108 81.0062 90.1605 78.8481C93.0185 76.34 95.1766 74.1673 96.6348 72.33C98.1221 70.4636 98.8658 68.3638 98.8658 66.0307C98.8658 63.581 98.0784 61.7729 96.5036 60.6063C94.9579 59.4398 92.6102 58.8565 89.4606 58.8565C87.6233 58.8565 85.7277 59.0315 83.7737 59.3815C81.8198 59.7023 80.5803 59.921 80.0554 60.0376L78.6118 53.3009C78.9034 53.1842 79.6179 52.9655 80.7553 52.6447C81.8927 52.3239 83.2925 52.0177 84.9548 51.7261C86.6463 51.4053 88.294 51.2449 89.898 51.2449C95.2641 51.2449 99.6678 52.3239 103.109 54.482C106.55 56.6401 108.271 60.198 108.271 65.1558C108.271 67.4889 107.804 69.647 106.871 71.6301C105.938 73.5841 104.83 75.2755 103.547 76.7046C102.263 78.1336 100.557 79.8688 98.4283 81.9102C96.1536 84.01 94.4621 85.7452 93.3539 87.1159C92.2457 88.4866 91.6916 89.9448 91.6916 91.4904C91.6916 92.9194 91.7208 94.1297 91.7791 95.1213C91.8374 96.1128 91.8666 96.7544 91.8666 97.0461L83.8175 97.571ZM82.7238 112.619C82.7238 110.665 83.2925 109.134 84.4299 108.026C85.5673 106.918 86.9379 106.364 88.5419 106.364C90.3209 106.364 91.7353 106.918 92.7852 108.026C93.8643 109.134 94.4038 110.665 94.4038 112.619C94.4038 114.544 93.8497 116.075 92.7415 117.213C91.6333 118.321 90.2334 118.875 88.5419 118.875C86.763 118.875 85.3485 118.335 84.2987 117.256C83.2488 116.148 82.7238 114.602 82.7238 112.619Z" fill="#B60808"/>
</svg>
