<svg width="160" height="177" viewBox="0 0 160 177" fill="none" xmlns="http://www.w3.org/2000/svg">
<g filter="url(#filter0_d_44_4947)">
<path d="M78.6533 96.8416L86.2647 159.055L109.095 140.47L110.414 139.397L112.102 139.602L142.452 143.283L116.339 86.1938L78.6533 96.8416Z" fill="white" stroke="#B60808" stroke-width="8"/>
<path d="M70.4063 96.8416L62.7949 159.055L39.9641 140.47L38.6454 139.397L36.9573 139.602L6.60805 143.283L32.7205 86.1938L70.4063 96.8416Z" fill="white" stroke="#B60808" stroke-width="8"/>
<circle cx="76.0942" cy="53.4277" r="49.4277" fill="white" stroke="#B60808" stroke-width="8"/>
<path d="M71.8288 41.6142L76.0941 28.4869L80.3594 41.6142C81.155 44.0627 83.4368 45.7206 86.0113 45.7206L99.8142 45.7206L88.6475 53.8337C86.5646 55.347 85.693 58.0294 86.4886 60.4779L90.7539 73.6052L79.5872 65.4921C77.5043 63.9788 74.6838 63.9788 72.601 65.4921L61.4342 73.6052L65.6995 60.4779C66.4951 58.0294 65.6236 55.347 63.5407 53.8337L52.3739 45.7206L66.1768 45.7206C68.7514 45.7206 71.0332 44.0627 71.8288 41.6142Z" fill="#B60808" stroke="#B60808" stroke-width="8"/>
</g>
<defs>
<filter id="filter0_d_44_4947" x="0" y="0" width="159.06" height="176.729" filterUnits="userSpaceOnUse" color-interpolation-filters="sRGB">
<feFlood flood-opacity="0" result="BackgroundImageFix"/>
<feColorMatrix in="SourceAlpha" type="matrix" values="0 0 0 0 0 0 0 0 0 0 0 0 0 0 0 0 0 0 127 0" result="hardAlpha"/>
<feOffset dx="5" dy="5"/>
<feGaussianBlur stdDeviation="2.5"/>
<feComposite in2="hardAlpha" operator="out"/>
<feColorMatrix type="matrix" values="0 0 0 0 0 0 0 0 0 0 0 0 0 0 0 0 0 0 0.25 0"/>
<feBlend mode="normal" in2="BackgroundImageFix" result="effect1_dropShadow_44_4947"/>
<feBlend mode="normal" in="SourceGraphic" in2="effect1_dropShadow_44_4947" result="shape"/>
</filter>
</defs>
</svg>
