<svg width="63" height="77" viewBox="0 0 63 77" fill="none" xmlns="http://www.w3.org/2000/svg">
<path d="M31.507 76.9999C53.6649 76.9999 61.3286 61.273 62.0187 20.3396C46.7159 17.434 42.0423 21.066 31.507 26.5141C23.8895 14.0278 16.9921 13.793 1.31055 9.80659V23.6084C4.75693 63.0592 9.34917 76.9999 31.507 76.9999Z" fill="#B60808"/>
<path d="M31.5095 0C45.2792 9.86165 49.1283 16.7648 50.3823 31.0542H12.6367C12.6367 31.0542 14.9756 19.3863 17.5446 14.8915C20.4508 9.80657 24.8114 5.38491 31.5095 0Z" fill="#B60808"/>
<path d="M62.0189 20.845C45.8592 18.13 34.4265 23.5238 26.5168 31.6995M12.0947 70.7898C8.84333 78.0097 9.98978 48.7821 26.5168 31.6995M1 10.1698C21.2912 13.2733 26.5568 18.1561 26.5168 31.6995" stroke="white" stroke-width="2.17924"/>
</svg>
