<?xml version="1.0" encoding="UTF-8"?>
<svg width="1200pt" height="1200pt" version="1.1" viewBox="0 0 1200 1200" xmlns="http://www.w3.org/2000/svg">
 <path d="m1178.8 547.5-70.25-149.25c-1.5117-3.2031-3.8984-5.9102-6.8828-7.8125-2.9883-1.9023-6.4531-2.9219-9.9922-2.9375h-263.75v-54.125l51.375 29.75c2.8594 1.625 6.0859 2.4883 9.375 2.5 2.082-0.015625 4.1484-0.35547 6.125-1 5.1758-1.8242 9.3203-5.7852 11.375-10.875l29.875-75c1.6445-4.1875 1.7305-8.8281 0.23828-13.074-1.4922-4.2461-4.4609-7.8125-8.3633-10.051l-327.12-189.12c-5.8281-3.25-12.922-3.25-18.75 0l-327.12 189c-3.9023 2.2383-6.8711 5.8047-8.3633 10.051-1.4922 4.2461-1.4062 8.8867 0.23828 13.074l30 75c2.0156 5.0742 6.1133 9.0352 11.25 10.875 5.1406 1.7695 10.797 1.2227 15.5-1.5l51.375-29.75v54.25h-246.5c-3.5391 0.015625-7.0039 1.0352-9.9922 2.9375-2.9844 1.9023-5.3711 4.6094-6.8828 7.8125l-70.25 149.25c-2.7578 5.8008-2.3359 12.609 1.1211 18.023 3.457 5.4141 9.457 8.6641 15.879 8.6016h47.25v487.5c0 4.9727 1.9766 9.7422 5.4922 13.258 3.5156 3.5156 8.2852 5.4922 13.258 5.4922h187.5v24.125c0 8.4219 3.3438 16.496 9.3008 22.449 5.9531 5.957 14.027 9.3008 22.449 9.3008h553c8.4219 0 16.496-3.3438 22.449-9.3008 5.957-5.9531 9.3008-14.027 9.3008-22.449v-24.375h187.5c4.9727 0 9.7422-1.9766 13.258-5.4922 3.5156-3.5156 5.4922-8.2852 5.4922-13.258v-487.5h47.25c6.3516 0.023438 12.277-3.1953 15.719-8.5352s3.9258-12.062 1.2812-17.84zm-891.25-267.75 303.75-175 303.75 175-15.875 40.125-278.38-160.88c-2.8477-1.6562-6.082-2.5312-9.375-2.5312s-6.5273 0.875-9.375 2.5312l-278.5 160.88zm303.75-82.875 199 114.88v698.62h-47.125v-206.38c-0.03125-27.176-10.844-53.227-30.059-72.441s-45.266-30.027-72.441-30.059h-98.5c-27.176 0.03125-53.227 10.844-72.441 30.059s-30.027 45.266-30.059 72.441v206.38h-47.25v-698.62zm-114.12 813.5v-206.38c0-17.238 6.8477-33.773 19.039-45.961 12.188-12.191 28.723-19.039 45.961-19.039h30.5v271.38zm133-271.38h30.5c17.25 0 33.797 6.8438 46.008 19.031 12.207 12.184 19.086 28.719 19.117 45.969v206.38h-95.625zm-489.88-314h234.62v111.75h-287.5zm171.5 617v0.75h-168.88v-468.62h232v436.25h-31.375c-8.3984 0-16.457 3.3281-22.406 9.2539-5.9492 5.9297-9.3125 13.973-9.3438 22.371zm579 56.5h-541.5v-50h541.5zm206.38-55.75h-168.88v-0.75c-0.03125-8.3984-3.3945-16.441-9.3438-22.371-5.9492-5.9258-14.008-9.2539-22.406-9.2539h-48.625v-436.25h249.25zm-249.25-506v-111.75h251.88l52.5 111.75zm-531.5 95.25h-114.88c-4.9727 0-9.7422 1.9766-13.258 5.4922-3.5156 3.5156-5.4922 8.2852-5.4922 13.258v114.88c0.03125 4.9492 2.0234 9.6875 5.5352 13.176 3.5117 3.4922 8.2617 5.4492 13.215 5.4492h114.88c4.9414 0 9.6758-1.9609 13.168-5.457 3.4961-3.4922 5.457-8.2266 5.457-13.168v-114.88c0-4.9531-1.957-9.7031-5.4492-13.215-3.4883-3.5117-8.2266-5.5039-13.176-5.5352zm-18.75 114.88h-77.625v-77.375h77.375zm18.75 67.125h-114.88c-4.9727 0-9.7422 1.9766-13.258 5.4922-3.5156 3.5156-5.4922 8.2852-5.4922 13.258v114.88c0 4.9727 1.9766 9.7422 5.4922 13.258 3.5156 3.5156 8.2852 5.4922 13.258 5.4922h114.88c4.9492-0.03125 9.6875-2.0234 13.176-5.5352 3.4922-3.5117 5.4492-8.2617 5.4492-13.215v-114.88c0-4.9531-1.957-9.7031-5.4492-13.215-3.4883-3.5117-8.2266-5.5039-13.176-5.5352zm-18.75 114.88h-77.625v-77.375h77.375zm617.38 37.5h114.88c4.9727 0 9.7422-1.9766 13.258-5.4922 3.5156-3.5156 5.4922-8.2852 5.4922-13.258v-114.88c0-4.9727-1.9766-9.7422-5.4922-13.258-3.5156-3.5156-8.2852-5.4922-13.258-5.4922h-114.88c-4.9492 0.03125-9.6875 2.0234-13.176 5.5352-3.4922 3.5117-5.4492 8.2617-5.4492 13.215v114.88c0 4.9531 1.957 9.7031 5.4492 13.215 3.4883 3.5117 8.2266 5.5039 13.176 5.5352zm18.75-114.88h77.375v77.375h-77.375zm-18.75-67.25h114.88c4.9531 0 9.7031-1.957 13.215-5.4492 3.5117-3.4883 5.5039-8.2266 5.5352-13.176v-114.88c0-4.9727-1.9766-9.7422-5.4922-13.258-3.5156-3.5156-8.2852-5.4922-13.258-5.4922h-114.88c-4.9492 0.03125-9.6875 2.0234-13.176 5.5352-3.4922 3.5117-5.4492 8.2617-5.4492 13.215v114.88c0 4.9414 1.9609 9.6758 5.457 13.168 3.4922 3.4961 8.2266 5.457 13.168 5.457zm18.75-114.75h77.375v77.375h-77.375zm-462.5-12.5h280.62c7.1172 0.035156 13.953-2.7695 18.996-7.7891 5.043-5.0234 7.8789-11.844 7.8789-18.961v-55.25c0-7.1172-2.8359-13.938-7.8789-18.961-5.043-5.0195-11.879-7.8242-18.996-7.7891h-281c-7.1055 0-13.922 2.8125-18.961 7.8281-5.0352 5.0117-7.8828 11.816-7.9141 18.922v55.375c0.16406 7.0195 3.0664 13.695 8.0898 18.602 5.0234 4.9062 11.766 7.6484 18.785 7.6484zm10.625-71.5h259.38v34.125h-259.75zm129.88-70.625c35.012-0.066406 68.566-14.027 93.293-38.816 24.727-24.789 38.605-58.379 38.582-93.391-0.023438-35.016-13.941-68.586-38.699-93.344-24.758-24.758-58.328-38.676-93.344-38.699-35.012-0.023438-68.602 13.855-93.391 38.582-24.789 24.727-38.75 58.281-38.816 93.293 0.03125 35 13.949 68.555 38.699 93.301 24.746 24.75 58.301 38.668 93.301 38.699zm0-226.62c25.098 0 49.164 9.9688 66.91 27.715s27.715 41.812 27.715 66.91-9.9688 49.164-27.715 66.91-41.812 27.715-66.91 27.715-49.164-9.9688-66.91-27.715-27.715-41.812-27.715-66.91c-0.16797-25.152 9.6758-49.336 27.352-67.227 17.68-17.891 41.746-28.016 66.898-28.148zm-43.5 137.5c-3.4805-3.5312-5.4336-8.293-5.4336-13.25s1.9531-9.7188 5.4336-13.25l25-25v-42.625c0-6.6992 3.5742-12.887 9.375-16.238 5.8008-3.3477 12.949-3.3477 18.75 0 5.8008 3.3516 9.375 9.5391 9.375 16.238v50.875c-0.03125 4.9648-2.0039 9.7227-5.5 13.25l-30.25 30.25c-3.5195 3.4961-8.293 5.4297-13.25 5.375-5.1641 0.16797-10.172-1.7734-13.875-5.375z" fill="#b50809"/>
</svg>
