<svg width="61" height="76" viewBox="0 0 61 76" fill="none" xmlns="http://www.w3.org/2000/svg">
<path d="M43.7085 7.45219C47.8991 8.26172 52.2897 8.47132 57.701 8.19637V37.0105C57.5474 43.0304 56.9804 47.1316 55.9717 50.1923C54.989 53.1744 53.5618 55.2452 51.5056 57.1653C49.3606 59.1682 46.5577 60.9915 42.6897 63.4897L42.6216 63.5336C39.1646 65.7664 35.0002 68.456 30.0779 72.1367C25.373 68.7525 21.3433 66.3114 17.9684 64.2669L17.9375 64.2482C14.1438 61.95 11.3633 60.2537 9.19642 58.2908C5.19306 54.6642 3.00218 49.8747 2.50874 36.9946V8.19564C7.78648 8.4682 12.137 8.31405 16.3286 7.5426C20.8941 6.70233 25.1525 5.15169 30.1253 2.77744C34.999 5.02314 39.1788 6.57716 43.7085 7.45219Z" fill="#B60808" stroke="#B60808" stroke-width="5.01748"/>
</svg>
