<svg width="215" height="177" viewBox="0 0 215 177" fill="none" xmlns="http://www.w3.org/2000/svg">
<g filter="url(#filter0_d_29_4709)">
<path d="M69.1625 76.8937L69.4745 78.5874L71.1682 78.8994L110.16 86.0825L71.1682 93.2656L69.4745 93.5776L69.1625 95.2713L61.9794 134.263L54.7963 95.2713L54.4843 93.5776L52.7906 93.2656L13.799 86.0825L52.7906 78.8994L54.4843 78.5874L54.7963 76.8937L61.9794 37.9021L69.1625 76.8937Z" fill="white" stroke="#B60808" stroke-width="5"/>
<path d="M125.326 25.8948L125.638 27.5885L127.332 27.9005L139.428 30.1289L127.332 32.3572L125.638 32.6692L125.326 34.3629L123.098 46.4588L120.87 34.3629L120.558 32.6692L118.864 32.3572L106.768 30.1289L118.864 27.9005L120.558 27.5885L120.87 25.8948L123.098 13.799L125.326 25.8948Z" fill="white" stroke="#B60808" stroke-width="5"/>
<path d="M163.164 113.737L163.476 115.431L165.17 115.743L191.077 120.515L165.17 125.288L163.476 125.6L163.164 127.294L158.392 153.201L153.619 127.294L153.307 125.6L151.613 125.288L125.706 120.515L151.613 115.743L153.307 115.431L153.619 113.737L158.392 87.8299L163.164 113.737Z" fill="white" stroke="#B60808" stroke-width="5"/>
</g>
<defs>
<filter id="filter0_d_29_4709" x="0" y="0" width="214.876" height="177" filterUnits="userSpaceOnUse" color-interpolation-filters="sRGB">
<feFlood flood-opacity="0" result="BackgroundImageFix"/>
<feColorMatrix in="SourceAlpha" type="matrix" values="0 0 0 0 0 0 0 0 0 0 0 0 0 0 0 0 0 0 127 0" result="hardAlpha"/>
<feOffset dx="5" dy="5"/>
<feGaussianBlur stdDeviation="2.5"/>
<feComposite in2="hardAlpha" operator="out"/>
<feColorMatrix type="matrix" values="0 0 0 0 0 0 0 0 0 0 0 0 0 0 0 0 0 0 0.25 0"/>
<feBlend mode="normal" in2="BackgroundImageFix" result="effect1_dropShadow_29_4709"/>
<feBlend mode="normal" in="SourceGraphic" in2="effect1_dropShadow_29_4709" result="shape"/>
</filter>
</defs>
</svg>
