<?xml version="1.0" encoding="UTF-8"?>
<svg width="1200pt" height="1200pt" version="1.1" viewBox="0 0 1200 1200" xmlns="http://www.w3.org/2000/svg">
 <path d="m861.1 407.67c9.6875-9.418 14.477-20.883 14.359-34.383 0.11719-13.504-4.6719-25.094-14.359-34.766-9.4219-9.4375-20.883-14.223-34.387-14.359-13.504 0.13672-25.09 4.9219-34.762 14.359l-191.95 192.33-192.33-192.33c-9.418-9.4375-20.883-14.223-34.383-14.359-13.504 0.13672-25.094 4.9219-34.766 14.359-9.4375 9.6719-14.223 21.262-14.359 34.766 0.13672 13.5 4.9219 24.965 14.359 34.383l192.33 192.33-192.33 191.95c-9.4375 9.6719-14.223 21.258-14.359 34.762 0.13672 13.504 4.9219 24.965 14.359 34.387 9.6719 9.6875 21.262 14.477 34.766 14.359 13.5 0.11719 24.965-4.6719 34.383-14.359l192.33-191.95 191.95 191.95c9.6719 9.6875 21.258 14.477 34.762 14.359 13.504 0.11719 24.965-4.6719 34.387-14.359 9.6875-9.4219 14.477-20.883 14.359-34.387 0.11719-13.504-4.6719-25.09-14.359-34.762l-191.95-191.95z" fill="#b50809"/>
</svg>
