<?xml version="1.0" encoding="UTF-8"?>
<svg width="1200pt" height="1200pt" version="1.1" viewBox="0 0 1200 1200" xmlns="http://www.w3.org/2000/svg">
 <path d="m858.83 405.41c8.8359-8.8711 13.246-19.578 13.227-32.117 0.019531-12.543-4.3906-23.246-13.227-32.121-8.8711-8.832-19.574-13.242-32.117-13.223-12.539-0.019531-23.246 4.3906-32.117 13.223l-194.6 194.6-194.59-194.6c-8.8711-8.832-19.578-13.242-32.117-13.223-12.543-0.019531-23.246 4.3906-32.121 13.223-8.832 8.875-13.242 19.578-13.223 32.121-0.019531 12.539 4.3906 23.246 13.223 32.117l194.6 194.59-194.6 194.6c-8.832 8.8711-13.242 19.578-13.223 32.117-0.019531 12.543 4.3906 23.246 13.223 32.117 8.875 8.8359 19.578 13.246 32.121 13.227 12.539 0.019531 23.246-4.3906 32.117-13.227l194.59-194.59 194.6 194.59c8.8711 8.8359 19.578 13.246 32.117 13.227 12.543 0.019531 23.246-4.3906 32.117-13.227 8.8359-8.8711 13.246-19.574 13.227-32.117 0.019531-12.539-4.3906-23.246-13.227-32.117l-194.59-194.6z" fill="#5f4767"/>
</svg>
